<mxfile host="app.diagrams.net" modified="2024-05-28T16:29:55.585Z" agent="Mozilla/5.0 (Macintosh; Intel Mac OS X 10_15_7) AppleWebKit/537.36 (KHTML, like Gecko) Chrome/125.0.0.0 Safari/537.36" etag="nbQ4ru08ztV_kAx1yEAr" version="24.4.8" type="github">
  <diagram id="prtHgNgQTEPvFCAcTncT" name="Page-1">
    <mxGraphModel dx="1434" dy="676" grid="1" gridSize="10" guides="1" tooltips="1" connect="1" arrows="1" fold="1" page="1" pageScale="1" pageWidth="827" pageHeight="1169" math="0" shadow="0">
      <root>
        <mxCell id="0" />
        <mxCell id="1" parent="0" />
        <mxCell id="dNxyNK7c78bLwvsdeMH5-11" value="데이터 가공 흐름도" style="swimlane;html=1;startSize=20;horizontal=1;containerType=tree;glass=0;" parent="1" vertex="1">
          <mxGeometry x="40" y="21" width="710" height="560" as="geometry" />
        </mxCell>
        <mxCell id="F3j0-nGMCzHcTSTMeUYu-2" value="데이터 1" style="rounded=1;whiteSpace=wrap;html=1;strokeWidth=2;" vertex="1" parent="dNxyNK7c78bLwvsdeMH5-11">
          <mxGeometry x="40" y="60" width="120" height="60" as="geometry" />
        </mxCell>
        <mxCell id="F3j0-nGMCzHcTSTMeUYu-3" value="데이터 2" style="rounded=1;whiteSpace=wrap;html=1;strokeWidth=2;strokeColor=#FF0000;" vertex="1" parent="dNxyNK7c78bLwvsdeMH5-11">
          <mxGeometry x="40" y="160" width="120" height="60" as="geometry" />
        </mxCell>
        <mxCell id="F3j0-nGMCzHcTSTMeUYu-4" value="데이터 3" style="rounded=1;whiteSpace=wrap;html=1;strokeWidth=2;" vertex="1" parent="dNxyNK7c78bLwvsdeMH5-11">
          <mxGeometry x="40" y="260" width="120" height="60" as="geometry" />
        </mxCell>
        <mxCell id="F3j0-nGMCzHcTSTMeUYu-5" value="데이터 4" style="rounded=1;whiteSpace=wrap;html=1;strokeWidth=2;strokeColor=#FF0000;" vertex="1" parent="dNxyNK7c78bLwvsdeMH5-11">
          <mxGeometry x="40" y="360" width="120" height="60" as="geometry" />
        </mxCell>
        <mxCell id="F3j0-nGMCzHcTSTMeUYu-6" value="데이터 5" style="rounded=1;whiteSpace=wrap;html=1;strokeWidth=2;" vertex="1" parent="dNxyNK7c78bLwvsdeMH5-11">
          <mxGeometry x="40" y="460" width="120" height="60" as="geometry" />
        </mxCell>
        <mxCell id="F3j0-nGMCzHcTSTMeUYu-7" value="유효 데이터" style="text;html=1;align=center;verticalAlign=middle;whiteSpace=wrap;rounded=0;" vertex="1" parent="dNxyNK7c78bLwvsdeMH5-11">
          <mxGeometry x="70" y="220" width="60" height="30" as="geometry" />
        </mxCell>
        <mxCell id="F3j0-nGMCzHcTSTMeUYu-8" value="유효 데이터" style="text;html=1;align=center;verticalAlign=middle;whiteSpace=wrap;rounded=0;" vertex="1" parent="dNxyNK7c78bLwvsdeMH5-11">
          <mxGeometry x="70" y="420" width="60" height="30" as="geometry" />
        </mxCell>
        <mxCell id="F3j0-nGMCzHcTSTMeUYu-24" value="데이터 가공" style="text;html=1;align=center;verticalAlign=middle;whiteSpace=wrap;rounded=0;" vertex="1" parent="dNxyNK7c78bLwvsdeMH5-11">
          <mxGeometry x="270" y="290" width="60" height="30" as="geometry" />
        </mxCell>
        <mxCell id="F3j0-nGMCzHcTSTMeUYu-41" value="" style="shape=image;verticalLabelPosition=bottom;labelBackgroundColor=default;verticalAlign=top;aspect=fixed;imageAspect=0;image=data:image/png,iVBORw0KGgoAAAANSUhEUgAAAgAAAAIACAYAAAD0eNT6AAAABHNCSVQICAgIfAhkiAAAAAlwSFlzAAAN1wAADdcBQiibeAAAABl0RVh0U29mdHdhcmUAd3d3Lmlua3NjYXBlLm9yZ5vuPBoAACAASURBVHic7N13vF1Vnf7xzxMIvQQFaQlFEIEfvQmKolQVKeo4okhXsY44Kig64thldMQyKCrSREERBUGkIypVqQKhCwm9hU4Sku/vj7UP9+YmgVvO2mvvc57367Vf594bWPuBe7LX9+y9iiICs14kScBSwARgmSHHhOrPFqqO8YO+HsnP5vXPLADMBGYMOoZ+P9yfDf7+OeBx4LEhxzTgsYh4tkv/68ysD8gFgDWdpKWA5Zi7A59Xpz74+6VJnXG/mM48CoNh/OyBiJhRIrCZleMCwIqStCgwEZgErFK9Dj2WKhawPwTwADBlHsfd1ev9ETGrWEIz6zoXAJaNpAWBlRnoyOfVwS9bLKCNxPPAvcy7OJgCTImIh8rFM7ORcgFgYyJpAeCVwLrAOtXrq0id/QrAuHLprGbPAVOBu4CbBh03RsQDJYOZ2dxcANiwSFoYWIuBTn6d6lgLWLhgNGuHx4AbqQqCQa9TwhchsyJcANgcJC0BrM2cHf26pE/5/TSgzurxNDCZuYuD2z3mwCwvFwB9TNJqwGuAzYH1SJ39JEDlUpkBadrjLaSC4DrgcuDKiHi8aCqzHuICoE9ImkDq6F9THVsArygaymxkAriZVAx0jusi4vmiqcxaygVAD5I0HtiAOTv7V+NP9tZ7ngWuZlBREBH/KprIrCVcAPQASaszZ2e/CbBI0VBm5TwIXMFAUXBlREwrG8mseVwAtEy1vO3GwI7A60id/nJFQ5k12+BHBxcB50bEPUUTmTWAC4AWkLQKsEN1bIcXzzEbq5uAc6vjooh4qnAes9q5AGggSUsCb2Kg03912URmPW0mcCkDBcHfPQXR+oELgAaoVtPbgoEOf0tgwaKhzPrXNOACqoIgIm4vnMcsCxcAhUhak4EOf1vSznVm1jx3MHB34IKIeKxwHrOucAFQk2rw3muAdwFvB1Yvm8jMRmE2aTDhKcApEXF34Txmo+YCIKMhnf6/kTbIMbPeEKRi4DfAbyJiSuE8ZiPiAqDL3Omb9aVOMfBr0p0BFwPWeC4AusCdvpkNEsBlDNwZmFo4j9k8uQAYJXf6ZjYMnWKgc2fAxYA1hguAEZK0EbAX7vTbbCZpqtdj1ev06mczSbvQDX59qZ/N689nAeOrY6GX+Hq4P1sMWKY6lsL7OrRRkNYb+DVwYkQ8XDiP9TkXAMMgaRHg3cCHSZ/6rbznGOjE53XM988i4ukSgbtF0jjStNFlhhwT5vGzoX82AVig/tQ2xHTSTIIfRcTfSoex/uQC4EVIWgv4ELAP8LLCcfrFTOBeYAowdcgxBbgHeCQiniuWsMWqR1dLkraCnjjomDTk++XwXYa6XA/8GDghIp4sHcb6hwuAISQtCOxO6vi3xRfBbprOvDv3wd8/EH5TFidpYWBlXrxIWB7//eimp4Bfku4KXFM6jPU+FwAVSZOADwIHACsWjtNmM4DbgMmkDVcmV8fdwEPu3HuHpPGkImF1YB1g7UGvEwtG6wWXke4KnOy7XZZLXxcA1bPUnUif9nfGz0ZH4nHm7OQ7r3dExPMlg1l5kpYgFQKDi4J1gDVJgxpteB4FjgWOiohbCmexHtOXBYCklwPvBw7ES/K+lKnM+Un+JmByRNxXNJW1UvWIbQ3mLg7WxvthvJggbVD0I+D33q3QuqGvCgBJywGfBj4KLF44ThPdBVw56PhHRDxRNpL1C0mrApsDmw16XapoqGa6Bfgq8EsXAjYWfVEASFqe1PF/hDSf2uAB4O8M6vAj4qGykcwGVDMW1iIVA51jI2DRkrka5Dbga8Av/NjNRqOnCwBJKwAHk27193PH/zhzd/Zeq9xap3qEsB5z3ilYH1iwZK7C7iAVAse7ELCR6MkCQNKKwCGkUf39+GnhRtLzwstIHf6tHn1vvapaqGsjUjGwNfAm0joG/eZO4OvAcRExs3QYa76eKgAkrUzq+D8ALFI4Tp3uAs6vjgsi4v7CecyKqR4drA9sVx1vIC1+1C/uAr4BHBMRM0qHsebqiQKgmsP/WdIc/oULx6nDQ6RP+J0O//bCecwaq3pssAVpYa/tgK3oj+vEFFIh8POImF46jDVPqwuAanDfl4D9SZum9KongT8z0Olf71v6ZqMjaVHSo4LtSEXBpsC4oqHymkoaI/BTzxqwwVpZAFQL+HyYNBVmQuE4Ocwm7Rr2J1KHf6UH95jlIWkC8EZSQfA2YLWSeTK6GvhIRFxWOog1Q+sKAElbkBbD2KR0li6bCVwInEpa6OOBwnnM+pKkjYF3VMe6heN0WwA/Bw6JiEdKh7GyWlMASHoZ6XnWB+idDUieAc4mdfpnRMS0wnnMbJBqR9BOMbAZvXPteRT4HOmxQDs6Aeu6xhcA1Yje/YFvAssWjtMN04AzSJ3+2RHxTOE8ZjYMkiYCbycVA6+nN/YOuYL0WOAfpYNY/RpdAEjakHS7f6vSWcbofuA0Uqd/oefomrWbpGWBXUnFwPa0e1bBbNLOg5/3Xcj+0sgCQNJSwFdIa/a3tcp+AjgJOAG4JCJmF85jZhlIWhLYBdiPNJCwrY8JHiStnHq8Hwv0h8YVAJLeC3wHWKF0llEI4GLSIJtTfHvfrL9UGxrtB+wLrFo2zaj9lfRY4PrSQSyvxhQA1VSco0m31NrmHuA40spbt5UOY2ZlVWOXtiMtTrY77VuZdCbw2Yj439JBLJ9GFADV1L6Tadf82xnAH0if9s/2AhtmNi+SlgHeSyoGNi4cZ6ROB/aNiMdKB7HuK14ASPok8C1gfNEgw/dP0p2KX0TEw6XDmFl7SNqINKtpT+BlheMM193Au72AUO8pVgBUVfGxpJG0TTcTOBE4MiKuLB3GzNpN0sKkKYUHAa8pHGc4ZpLWDfhfDxDsHUUKAElbkUbIr1L7yUfmCeAnwBERcU/pMGbWeyS9njT6fmeaP4PgDGCfiHi0dBAbu1oLgGpgzKdJe1YvWNuJR+5e4HvAURHxeOkwZtb7JK0LfIY0XqDJm5vdDewREZeWDmJjU1sBIOnlpJHyO9dywtG5Cfgf4ETvo21mJUhaifRo4EBgqcJx5ud54FDg234k0F61FACSXke65T8x+8lG56/A4aT1+P1mNrPiqgXRDiQVAysVjjM/ZwJ7+5FAO2UvACTtTur8m7ZU5mzS8ryHe3SrmTWVpIVIswY+TTN3J7wJ2D4i7i0dxEYmawEgaU/SSP+mPe8/F/hMRFxbOoiZ2XBUY6jeB3wNmFQ4zlB3kIqAO0sHseHLVgBIOhA4EhiX5QSjcz1wcET8qXQQM7PRkLQI6bHA52jWGIF7SEXA5NJBbHiyFACSPk0aTNcU9wJfJC3V6015zKz1JC1Huq59iObcZX0I2Ckiri4dxF5a1wsASf9NelM2wVOkQuTb3pjHzHqRpLVIq6nuXjpLZRqwc0RcUjqIvbiuFQDV86n/Jd2aKm0WabnewyLi/tJhzMxyk7Q1aSfVLUpnAZ4GdouI80sHsfnrSgEgaRxwFPD+MTc2dn8kDfC7sXQQM7M6VR/E/h34JuU3V5sO/HtEnF44h83HmAsASQsCJwB7dCXR6D0KfCwiflU4h5lZUZIWJz0W+Ahllxd+nrROgK/LDdSNAuBkUsVZ0unAgb7db2Y2QNK2pC3LVy0YYzZpN8FTCmaweRjTFD1Jn6Vs5z+NtDHFbu78zczmFBEXAOuTNjUrZRxwrKT1CmaweRj1HQBJOwJnUW6e/1nAB7xLn5nZS6uu2UdTbkn224DNI2JaofPbEKPqvCWtDvxqtP/+GD0BvD8i3urO38xseCLiHGA90uqsJawJnFgNGrcGGPEvQtJiwO+Al3U/zks6D1g/Io4ucG4zs1aLiMcjYj/gbcB9BSK8FfjvAue1eRhNJfYzYMNuBxmG/wZ2jIi7C5zbzKxnRMSZpOv4Xwuc/vPVJnFW2IjGAEj6T9JCE3V6FtgvIk6u+bxmZj2t2mnwJ8A+NZ/6SWAL7xtQ1rALgGo6yTnAAlkTzek+0mpSV9Z4TjOzviLpYOAb1Duu62ZSEfBEjee0QYZVAEhaBfgHsGz2RAOuBnaNiKk1ntPMrC9J2hU4EViixtOeBrw9cu5Lb/M13GrveOrt/E8Ftnbnb2ZWj2rJ3q2BOsdZ7QYcWOP5bJCXvANQDdb4XT1xAPg68AVXhGZm9ZO0PPB7YMuaTvkQsKYfBdTvRe8ASBoPHF5TlgD2j4jPu/M3MysjIh4A3kgqAuqwHHBoTeeyQV7qEcBHgVfVEQT4j4g4pqZzmZnZfETEdNIGbxfUdMqDJJXcr6AvzfcRgKRlSEs31rHgz39HxJdqOI+ZmQ2TpCVJRcBmNZzupIh4Tw3nscqL3QH4IvV0/j90529m1jwR8STwFqCO+fp7SKpr3IExnzsAktYEbgTGZz7/L4H3+Zm/mVlzSZoE/A2YlPlUl0bEazOfwyrzuwNwOPk7/z8C+7rzNzNrtoiYAuwAPJz5VFtJKrnFfF+Z6w6ApDcAf8583r8BO0TEs5nPY2ZmXSJpU+BCYMmMp7kTWKcaiGgZzesOwDcyn/MR4B3u/M3M2iUi/gF8OPNpVgc+mPkcxpACQNJ6QO7nLx+PiAczn8PMzDKIiBOB0zOfxgVADYbeAdg/8/lOi4hfZT6HmZnl9SHgsYztrydpi4ztG4MKgGpbyL0ynusx0pvGzMxaLCLuAw7KfJoDMrff9wbfAdiVvBv+fCIi7s/YvpmZ1SQijifN5splD0mLZWy/7w0uAHKuwHRGRJyQsX0zM6vfB4HHM7W9FLBzpraNqgCQtACwbaZzPIW3ezQz6zkRcQ9wcMZT7JSx7b7XuQOwGTAh0zl+GRH3ZmrbzMzKOpa0pW8OO2Zq1xgoAHbIeI6jMrZtZmYFRcQMUhGQwyRJ62Rqu+/lLgD+HhFXZWrbzMya4SdArmXd/Rggk3GSxgG55lv607+ZWY+LiNtI2wbn4M2BMhkHvBJYJEPbTwBe9MfMrD/k+sC3bqZ2+9448v3PPTEins7UtpmZNcvvgRzLvK8lacEM7fa9nAXASZnaNTOzhomImcBvMzQ9HlgzQ7t9L2cBcHOmds3MrJkmZ2rXjwEyGAdMytDu0xHxQIZ2zcysuW7L1O7ETO32tXGk5Ra77fYMbZqZWbPlKgCWzNRuXxsHLJ2h3TsytGlmZs12JzArQ7suADLwHQAzM+uKaiDg3RmaXiJDm33PBYCZmXVTjscAvgOQwThg4dIhzMzMXoT7qQzGvfQ/MiprZGrXzMyazXP2W8IFgJmZdYWk8cAqpXPY8OQqAF6ZqV0zM2uu1YEFSoew4fEdADMz6xbf/m+RXAXA4pKWz9S2mZk1kwuAFslVAAC8OmPbZmbWPGtnajcytdvXchYAe2Rs28zMGqQaAPjOXM1narev5SwA9pS0eMb2zcysOXYHXlE6hA1fzgJgKeA9Gds3M7PmOLB0ABuZnAUA+A1hZtbzJK0JbFs6h41M7gJgM0mbZD6HmZmV9UH8nL51chcA4LsAZmY9S9JCwL6lc9jI1VEAvFfSSjWcx8zM6rcvsFzpEDZydRQASwBH1XAeMzOrkaSVgcNL57DRqaMAAHibpL1qOpeZmdXjJ8DSpUPY6NRVAAB8T9IKNZ7PzMwykbQ38NbSOWz06iwAlgF+XOP5zMwsA0krAkeUzmFjU2cBALCbJC8OZGbWbj8mfaizFqu7AAD4gSQvF2lm1kKS9gR2LZ3Dxq5EAfBy4FRJixY4t5mZjZKkTYEflc5h3VGiAAB4HXBKtXuUmZk1nKRXA38CliydxbqjVAEAafTosZK8fKSZWYNJmgScCyxbOot1T8kCAOC9wPcLZzAzs/mQtCxwDjCpdBbrrtIFAMDHJH2pdAgzM5uTpCWBs4C1S2ex7mtCAQBwmKSPlQ5hZmaJpIWB3wOblc5ieTSlAAD4vqT9SocwM+t3Ved/ErBt6SyWT5MKAAE/l/Q1Dww0MytD0vLARcDuhaNYZk0qADoOJU0RXKx0EDOzfiJpQ+AKYMvSWSy/JhYAAO8A/ippYukgZmb9QNKuwF+BVUpnsXo0tQAA2Bi4QtLmpYOYmfUySQcDvwOWKJ3F6tPkAgBgReDPkt5dOoiZWa+RtJCkY4Fv0fz+wLqsDb/wRYGTJH3JgwPNzLpD0nLA+cA+pbNYGW0oADoOA86R5OdTZmZjIGln4Fpg69JZrJw2FQAA2wPXSzqgdBAzs7aRtLSkY4AzSI9YrY+1rQAAWAr4maQ/Slq5dBgzszaQtCPwT2DfwlGsIdpYAHS8BfinpL1LBzEzaypJS0o6Cjgb8NRqe0GbCwCACcBxkk6TtELpMGZmTSJpW+B64IOls1jztL0A6NgVuEHSe0oHMTMrTdLikn4InAesWjqPNVOvFAAALwN+KelMSeuWDmNmVjcl7yY96/8oaY8Vs3nqpQKg463AdZKO8mMBM+sXkrYGLiPt4rda2TTWBr1YAAAsQHrmdaukL3pjITPrVZLWkvQ74C/AFqXzWHvkKgDOAmZlansklgD+m1QIHCCpVwseM+szkpaT9APgBpqzde89wFWlQ9jw5OoQjwd2AZ7M1P5IrQT8DLhG0ptLhzEzGy1Ji0j6LHAb8DFgwcKROq4BXgPcWjqIDU+2T8QRcRbwemBqrnOMwvrAWZLOqfa9NjNrhWqA317ALcA3SIuiNcUZwOsj4p7SQWz4st4Sj4hrSRVh024J7QBcJelUSVuWDmNmNj/Vjn37kUb2Hw9MKhxpqO8Bu0XEU6WD2MhkfyYeEfcCbwD+kPtcIzQOeDtwqaS/SNrFuw2aWVNIWkrSZ4A7gZ8DTZvePAv4WEQcFBGzS4exkatlUFxEPE0apPK9Os43ClsDp5MWE9pP0kKlA5lZf5K0kqTDgSnA4aQxTE3zJLBLRPxf6SA2erWNio+I2RFxELA/8Exd5x2hdUiV9p2SDpa0dOlAZtYfJK1b7dR3J/AZmvWMf7AbgC2rcV7WYrVPi4uIY4BNgevqPvcIrAR8C7hb0v9410Ezy0XS6yX9gYGd+pp8B/IoYPOIuLF0EBu7IvPiI2IyaXBg028fLQV8mnRH4BhJm5cOZGbtJ2lhSXtIugy4GHgbzV62dxrwroj4UEQ8WzqMdUexhXEi4rmI+BhpIN6jpXIM03hSZX6FpOslHSRp2cKZzKxlJG0k6fvAvcCvSB+Emu5SYKOIOKV0EOuu4ivjRcTvgY1Iy1i2wXrAd4F7JJ0i6a2SFigdysyaSdIykj4q6SrgauDjpM3Lmm42ab2BN0TEXaXDWPcVLwAAImIK8Cbgy8DzheMM10LAO4EzgbskfU3SmoUzmVkDVIv2bC/pV6RP+z8ENi4cayTuBXaMiEMjoi3XZBuhRhQAABExKyIOAzYHriidZ4RWBg4FbpF0kaS9vQGRWf+RtKqkL5FG8p8L7AEsUjTUyMwGjgTWiYjzS4exvBpTAHRExDXAVqTbZE3ZS2C4BGwDHAfcV21JvLU3ITLrXZKWlPReSeeSOv7DgFULxxqN64DXRsRHI+KJ0mEsv0Z2TNWaAT8kzcs/tXSeUVqKtCXxX0jjBX4saUdJ4wvnMrMxkrSspP0lnQE8BJwIbE+zR/LPzzPAIcCmEXF56TBWn6bsIjVP1cYS75S0C2nKYNPWwB6uFYADq2NaddE4FTg7Ipq6KJKZDSJpImnW0jtIG531wuDfPwEfiYg7Swex+jXyDsBQEfEH0jrY3yWtP91mE4D3kQqAh6oNid4naULhXGY2hKS1JH1W0hXA3cD3gTfS/s7/fmCPiHiLO//+1YoCACAinoqI/wQ2Ac4unadLFiN9ojgBeFDS2ZIOlLR84VxmfUvSxpK+IukG4GbSVLjNaeft/aGeI61yunZEnFw6jJXV6EcA8xIR1wFvlrQdaaOMTQpH6pbxwI7VcaSkS0m3584HrvRUHLM8qrtvbwS2I63It1rJPJnMJg1O/mJETC0dxpqhdQVAR0ScL2kz0jSbrwGrF47UTeOA11XHV4AnJf0ZuIBUEFwfEVEwn1lrSVqUtAPodsC2pL1JWnM3dBT+CBwSEf8sHcSapbUFAEDVCf5K0m+BjwBfAF5eNlUWS5I+mbyt+v4hSZ1i4IKIuL1YMrOGk7QgsAWps9+ONM144aKh6nElcHBEXFQ6iDVTqwuAjoiYARxRbaV5CHAQsGjZVFktB7y7OpB0F6kY6BQE9xfMZlaUJAHrkzr77YA3kIrofnE7aWGy3/hOob2YnigAOiLiceBQST8k7eL3QWDxsqlqsSqwf3Ug6UbS44LLSJ8CbvWFwHqVpEVI+4lsTrq1/yZSkdxvbiMN8DsuImaWDmPN11MFQEdE3Av8p6SvAv9Bezbf6JZ1q+Nj1fePS/o7qRi4kjSocEqpcGajVd3OX4/U2W9Wva5Pj17Lhuka4JukT/yzS4ex9ujpvzQR8SjwJUn/Q7ob8CnSuv39ZmkGbocCIOkBYGhR8FCZeGZzq27lr0Xq5DvHRvT2472R+Cvw9Yg4q3QQa6eeLgA6IuJp4LuS/g/YCziYdGHpZ8sDO1cH8MJYgisHHf/wmuBWF0mrMucn+81IS2rbnP4IfCMi/lo6iLVbXxQAHdVgwaOrwYLvBD5L76wj0A2rVse/dX4gaSpwEzC5Om4CJkfEfUUSWqtVt/DXANaujnUGfb10wWhNNws4hdTxX1s6jPWGvioAOqrnZL8BfiPpdaQphP8GLFQ0WDNNrI4dBv9Q0uMMKggGvd7hRYtM0hLM3cmvA6xJWvTKhud+4GjgKI/bsW7rywJgsIj4G/A3SQcBBwAfop1bedZtaeA11THYDEm3MWdRMJm0jvpDno3QO6qdLVcmLcI1uJNfm1Q02uj9GTgS+J1H9FsufV8AdFQD4L4p6XDgraS7AjvR2yuE5bAQA7MQhpou6V5gCjB10DH4+wdcJJQnaWFS5z5x0DFpyPfL0xvr4zfF46R9QX4UETeWDmO9zwXAENXjgTOAMyStTrojsD+wbNFgvWFh0qfFF1u2eeZ8ioROoXAP8EhEPJc5a0+qRtYvCbyCF+/cl8Ode12uIX3a/2U1YNmsFi4AXkS1TeYhkr5IGiOwF7A97d8KtMnGMzAYcb4kPQdMAx6bzzHfP2v7RVbSONIjmGWGHBPm8bOhfzYBv3+b4FHSOKRjI+Ky0mGsP7kAGIaImA6cCJwo6RWkJXj3ZO7n31afRYAVqmNEJM1koECYBkwHZlbHjCGvL/Wzef35LFIhM570SOTFvh7uzxZjoDNfCn86b6PngD+QriVnVbOSzIpxATBCEfEg8APgB5LWBN5LKgb6fV2BNhlPusXdj8vFWr1mAxcCvwBO9boa1iQe4DYGEXFbRHw5Il5NWrjkCNK0HTPrb1eRVh6dGBHbR8Sx7vytaXwHoEsi4u/A3yV9mrTt6L8BuzKKW9Rm1krXAKcBJ0XE5NJhzF6KC4Aui4hZwLnAuZI+RNqHfLfqmNfUODNrp5nAxaRO//SIuKtwHrMRcQGQUTWf/fLqOLQaM9ApBl6LR2Obtc0TwFmkTv+P1RbkZq3kAqBGEXEb8B3gO5KWBd5GKgZ2JI3yNrPmmQKcTur0L/LKfNYrXAAUEhEPA8cCx0paBNiGtMbAdqQtTz3Ny6yMp4G/AOcB53nzHetVLgAaoFrV7uzqQNLLSQMJtyMVBWuUS2fW854HriB1+OcDl3mOvvUDFwANFBGPUO1WCC/sk965O7AdaRlXMxu9fzLQ4f85Ip4snMesdi4AWqAaXXw0cHS1lvt6pEJga2ArYKWC8cyabjapw7+UNGr//Ih4oGwks/JcALRMNbPg+uo4AkDSJFIh0Dk2Ji0ha9aPHgUuI3X4lwJX+BO+2dxcAPSAiJhCGqn8a3hhK9dNGCgItsT7s1tvGvzpvtPp3+Itpc1emguAHlRtXtT59AOApImkYmAzYEPSTIPliwQ0G53ZwG3AtaRV9y7Hn+7NRs0FQJ+IiKkMGlgIIGkFBoqBzutaeIEiK+9p0mOuTmd/DXB927dyNmsSFwB9LCLuJ21edHbnZ5IWJQ0yHFwUbAAsWSKj9YV7SR384M7+toiYXTSVWY9zAWBziIhngSurA4Bq5sHKpLsDawGvHvT16viOgb20p4FbgVuAm6vXW0jP66eVDGbWr1wA2EuqBlRNrY4LBv+ZpPHAK5mzKOgcK9ab1Ap7HriDQZ07A538PSWDmdncXADYmFTrot9cHXOQtCTpDsEk0iyESYOOidWxaG1hbaweI802GXxMrV7vBu6KiOfLxTOzkXABYNlUo7Ovq455qjZFml+BsDywHLAMMC533j42A3gYeAi4jzk79hc6eg/AM+stLgCsqGpTpIeBq+f3z0gaB7wcWJZUEHRel3uRny2SNXizPUHqzDud+uCv5/pZRDxRKKeZFeQCwBqvGg3e6bRuGs6/Uy2GtARp9sISw/y687o4MJ7092M0xzhgFumZ+HCOmUO+nwE8BTxZvY7o64iYNZz/R2bW31wAWE+qFkOaDjxSOouZWRP5uaqZmVkfcgFgZmbWh1wAmJmZ9SEXAGZmZn3IBYCZmVkfcgFgZmbWh1wAmJmZ9SEXAGZmZn3IBYCZmVkfylUAuLAwM+tPvv63RK5f1MqZ2jUzs2abWDqADU+uAmCNTO2amVmzrVk6gA2PCwAzM+sKSUuRtuS2FshVALwyU7tmZtZc/vTfIrkKgFUleathM7P+4gKgRXIVAAsAq2Zq28zMmskFQIvknK6xaca2zcyseTbL1G5karev5SwA3p+xbTMzaxBJywNvy9V8pnb7Ws4CYHtJHgxoZtYf9gfGlw5hw5ezABDwgYztm5lZA0jy9b6Fci/ZuL8kV4RmZr1tB2D10iFsZHIXAK8Ads98DjMzK+vA0gFs5OrYtMFvDDOzHiVpRWDX0jls5OooALaTtEMN5zEzs/p9BfDCby1U17aNP5W0ZE3nMjOzGkjaETigdA4bnboKgFWBw2s6l5mZZVZ9kJp97gAAIABJREFUqPtp6Rw2enUVAAAHStq2xvOZmVk+3wZWKR3CRq/OAkDAzyQtXuM5zcysyyRtB3ywdA4bmzoLAEjzRL9V8znNzKxLJC0B/Kx0Dhu7ugsAgI9U1aOZmbXPd4DVSoewsStRAAj4raQNC5zbzMxGSdIh+NZ/zyhRAAAsDZwtaY1C5zczsxGQ9H7gm6VzWPeUKgAAlgfOrVaRMjOzhpL0TuDHpXNYd5UsACANCjxH0jKFc5iZ2TxUY7Z+CSxQOot1V+kCAGA94ExJi5UOYmZmAyRtDvweWKh0Fuu+JhQAAFsBp3rrYDOzZpC0DnAWsETpLJZHUwoAgJ1IRYDfbGZmBUnaBDgPeHnpLJZPkwoAgLcBf5Pk5SXNzAqQ9A7gL8BKpbNYXk0rAAA2AK6QtFXpIGZm/UTSocApgMdk9YEmFgCQpgheKGnP0kHMzHqdpIUl/QL4GmmxNusDTS0AABYGfiHpq5L8hjQzy0DS8sCFgD9w9ZkmFwAdnwdO8TRBM7PukrQBcAVpJpb1mTYUAADvAP4iafXSQczMekG1ut/fAA+67lNtKQAANgGuk/Sh0kHMzNpK0jKSTiAN9vO06z7WpgIA0pv1R5LOkTSpdBgzszaRtDPwT+B9pbNYeW0rADp2AP4paf/SQczMmk7S0pJ+DpyB5/dbpa0FAMBSwNGS/ijJb2gzs3mQtCNwPbBf6SzWLG0uADreAtwgaa/SQczMmkLSEpJ+DJwN+JGpzaUXCgCACcDxkk6TtGLpMGZmJVVb+F4PHFg6izVXrxQAHbsCt0o6TNLipcOYmdVJ0lqSfkfayGe1wnGs4XqtAABYHPgSqRA4QNIChfOYmWUlaTlJPwRuAHYvncfaoRcLgI4VgZ8B10h6c+kwZmbdJmlRSZ8DbgM+CixYOJK1SK4C4IukN2QTrAecJelcSRuWDmNmNlZK9gZuBr5OmhXVBCcDp5UOYcOTqwC4FdiStMxkU2wPXCXpWEkTS4cxMxuNaoDfP4DjaNbo/q8D7wGeKx3EhifbI4CIeATYjlQRNsU4YB/gFklfk7RM6UBmZsMhaUNJZ5IG+G1cOs8gM4H9I+LzERGlw9jwZR0DEBHTSRXhN3KeZxQWBQ4Fpkj6riRvhmFmjSTpTZL+BFwDvLV0niGmAW+OiGNKB7GRyz4IMJJDgfcDz+c+3wgtDhwE3C7peEnrlw5kZiZpnKR3SboSuADYqXSmebgTeG1EXFA6iI1ObbMAIuJo0qp9j9d1zhFYENiLtNvgHyVtUzqQmfUfSYtUO57eAvwa2KxwpPm5DNgyIm4qHcRGr9ZpgBHReXZ1eZ3nHaG3ABdJulzSOyX18lRJM2uAaovezwN3AT8C1igcaX4C+F9gm4h4sHQYG5vaO7eIuBN4PXA46c3UVFuQ9sueLOmDkhYuHcjMeoukSZK+C9wNfBV4ReFIL+YhYOeI+FREzCgdxsauyKfbiJgZEYcAbwYeKJFhBF4FHAXcVc0cWLN0IDNrr+r5/g6STgJuJ41DWqJwrJdyAbBhRJxVOoh1T9Hb2xFxDrAhcE7JHMO0PGnmwK2SLpK0t6TFSocys3aQtKqkLwF3kK557wbGFw310p4HPg/sEBH3lQ5j3VX8+XZEPEC6E3AIaT5pG2xDWoTjPkk/kfSa0oHMrHmqQX3vkXQuadT8YcCqhWMN112kZ/1fj4jZpcNY9xUvAOCFqYKHA1sDbRpVuhTwAeAySTdI+pSkJj/DM7MaSNqk2pznXuCXpJVIVTbViJwIbBQRl5QOYvk0ogDoiIgrgI2A/6J9y0muC3wbmCrpVElv806EZv1D0sskfVzSNaSlej8KtG210duBHSPifRExrXQYy6tRBQBARMyIiK8CGwDnl84zCuOBtwN/IK00+G1JW0lqU/VvZsMgaYlqwZ5fkz7tf580rqltZpJWbF0/Is4tHcbq0bgCoCMibo2I7YG9SdNP2mhF4FPAJcA9ko6UtL0kb9lp1lKSXi5pX0mnk65NvwbeBbR1qvAlwMYRcWhEPFs6jNWnsQVAR0ScAKwDtH2t6RWBDwPnAg9KOk7SbpIWLZzLzF6CpJUlfVTS+cD9pOvRLsAiZZONyTTgQ8DWEXFD6TBWv8YXAJB2FoyI/YE30q5BgvOzDOnOxu+BhySdIum9kpYunMvMKpJeJelgSZcBU4AfAtuSlg5vu5OAdSLiKO/g179a9UaOiD9L2oC0sdBhwAqFI3XD4sA7q2OGpAuAU4HTvNSmWb0kbUQaw/MOYL3CcXK4GDgkIi4rHcTKa1UBABARzwM/lnQC6fn6Z2j+KlrDtRBpTYQ3k/4bryatwHU+8NeIeLpkOLNeI2ki6VP9dtXrxLKJsvkn8LmIOKN0EGuO1hUAHVVn+GVJPwa+CHyQ5q+qNRLjgE2r4zPATEmXM1AQXOb1uM1GRtKywJsY6PRfVTZRdlNI18fjvZiPDdXaAqCjuk3+MUnfA74O/FvhSLmMJy2UtDXpL/Qzkv7GQEFwVUTMKpjPrHEkLQW8gYEOf33atSDPaD1Gmtb3g4ho25oqVpPWFwAdEXEr8K5qWd5vkZbr7WWLATtUB8Djkv5MKgYuiIh/FktmVoikRYDXkTr8bYHNgX5akOtZ0mDFb0TEY6XDWLP1TAHQERGXA2+U9Abgs8BbCkeqy9LArtWBpIeAy4ErO0dEPFwunll3VYtrvYrUyXeOTWnvfPyxeBw4EjjCg4dtuHquAOiIiIuBiyVtSCoE3kV/fRJYDnhbdQAg6V8MFAR/B/4REU8USWc2QpJWYe7Ovt+nzj4AHAEc6b/LNlI9WwB0RMS1wHskfYE0mG5f+vMTAsBq1fGu6vuQdDOD7hIA1/iZoZVWbaq1GXN2+N5oa8C/SHuPHO2/rzZaPV8AdETE7cCHqv24P0laAWupoqHKE7B2dexV/ex5SdczcJfgRuCmiHi0TETrZdVt/FVJq31uQOroN6M9W+bW7Ubgm8CvqinRZqPWNwVAR0TcDxwi6evAR6qjV+f+jsaCwMbV8cHOD6sxBZNJKzEOfr3LK4nZS6kG561FKjbXYaDwfDXg5bBf2l+A/yUtEOa/b9YVfVcAdETE48A3JB1OWtP7w6QR9f0wRWg0lquO1w/5+bPVY4ROQdApDm6JiOn1RrTSJL2cgc59nUGvq9GSpccb5EngBOBHntVjOfRtAdBRzZ3/PfB7SWuSHg3sB7ysaLD2WBTYqDoGmy3pTgaKgruBqdUxBXjAC5O0T/VJfmXSXbOJwCRgdQY6++XKpesZ1wE/An4REU+VDmO9q+8LgMEi4jbg09WAwXeT7gq8pmyq1hoHrFEdO8/jz5+XdC8DBcHUIccU4H4vblSfamfKwR37xCHHJGDZYgF723TgFNKn/b+VDmP9wQXAPFSjao8DjpO0CakQeC9p8R3rjgWBVapjfmZJuo85i4J7gEdIK51Nq14fAx7zp6U5SRoHTCDtPtl57RyvYO7O3Xe96ncncBRpNL/X6bBauQB4CRFxFfABSZ8i7RC2J2kt8X5aU6CUBRjooF6SpOcZKAjmKA6GHNOGfD0dmFEdM4EZJe88SBpP2hiq87oQqfjsdN5DO/P5/XwpPKaliaYBvwV+AVzsR2FWiguAYaoW2TgWOFbSCsAepGJgs5K5bA4LMjBYcUwkzWZQQTDkGPqzod/PYs7Oe/DX8/vZ4O+t90wHzgROBM70AFlrAhcAo1BNJTwCOELSWqRCYE/S827rDeOARarDbDRmAxeTOv1TImJa4Txmc/C0nDGKiFsi4rCIWBPYEvgB4LW4zfrXtcDBwKoR8aaI+Jk7f2si3wHoomojosslfZK0Belu1bFayVxmltVs0sZbp5EW6plcOI/ZsLgAyKAaQHZhdRwkaQMGioFNS2Yzs654FjgPOB34Q0Q8UDiP2Yi5AKhBRFxHWtzjK5Imkrbs3Q14Ix70ZdYWDwFnkDr9cyLimcJ5zMbEBUDNImIqad/uIyUtBbyFVAzshOdhmzXNZFKnfxpwiafsWS9xAVBQNbXwZODkatGWjYHtgO2BrfEmKWZ1uxc4v3NUBbtZT3IB0BDVJ4t/VMfhkhYGtiIVA9uRtkn14kNm3fU4cBGpwz8vIm4qG8esPi4AGqpaKOSi6viCpKWBbRgoCNYtFs6svaYDl1B1+MDfvd+E9SsXAC1RbV98enUgaUXgdcBrSXcKNsEDCs2GegS4jNTpXwpcFhHPlo1k1gwuAFoqIu4j7R52CkD1yGBTUjGwFakwWLFYQLP6zQZuJHX0lwCXRsTNZSP1pXtb0mbfcwHQI6pHBpdUBwCSVmXgDsFWwEb4d26943HSAjydDv/y6k6ZlXVVS9rse+4MelhE3AXcBfwKXtjvfcPq2Kh6XR9YolRGs2G6j7TEbue4BrjZ0/IayQVAS7gA6CPVs8/LqgMASSJtYrThkGPVEhmt780EbmLOzv7aiHioaCobiZuBZ0hbWHfDM1Wb1mUuAPpcRARwW3X8tvPzatZBpxjYAFgHWIsubLVrRnpefxdwC3ADA539TRExo2QwG5uImCXpROADXWryRM/UyENAZGj3PRFxUoZ2rTBJy5AKgaHHq4DFC0azZnqQ1MkPPm4Gbq/GrVgPkrQkafnz1cbY1L+ADSLiybFmsrn5DoCNSEQ8Rhp4dfngn1ePElZm7sLglcAkPM6glz0ITAFuZUhn70F5/SkinpS0D2lDtNFuOz8b2Medfz4uAKwrqkcJU6vjgqF/Xt05mFQdqwz6uvP9yngdgyZ6Erib1MFPGfR153VqRDxXLp41VURcLOkLwFcZeREwG/hCRFzc/WTW4UcA1gjVHYTlmbM4WB5Ydh7Hyxj9pwpLq+E9AjxM2uHu4UHHfQzq4P0J3sZK0huA4xj+44B/kT75u/PPzAWAtU61cdIyzLs46BwTSI8dlqxeB3/dC3cangGeIn1Cf2rI148yZ6c+x+Fbqla3akzAd4A9mf/sgGeAE4FP+T1aDxcA1nckjWfehUHndXFgPOkR2WiOccAs4PlhHjOHfD+D+XfuTwFPef67tZGkBYBXk5Yu36T68VXVcbNH+9fLBYCZmVkf8nNUMzOzPuQCwMzMrA+5ADAzM+tDLgDMzMz6kAsAMzOzPuQCwMzMrA+5ADAzM+tDLgDMzMz6kAsAMzOzPpSrAPAug2ZmZg2WqwBYNlO7ZmZm1gW5CoDlMrVrZmZmXeACwMzMrA/lKgBWztSumZmZdUGu7YAfBZaNiBxtm5mZ2RjlugPwMmCDTG2bmZnZGOVcB2CbjG2bmZnZGOQsALbN2LaZmZmNQa4xAAAzgEkR8WCm9s3MzGyUct4BWAjYL2P7ZmZmNko57wAA3AGs6dkA/UvS4qTHQWsAK83jWLJcOjOzop4E7p3HcTtwQUQ8nfPkuQsAgLdExJ8yn8MaRNJywK7A7sD2wCJlE5mZtc5zwHnA74HTI+Khbp+gjgLgSuA1vgvQ2yQtBBwAvBd4Ld5p0sysW2YDfwN+BRwdETO60WgdBQDA3hFxQg3nsZpJEvAe4KvA6oXjmJn1ujuBLwC/GusH67oKgHuAtSLimRrOZTWRtCPwTWDj0lnMzPrM1cBnI+Kc0TZQ123alYGDazqXZSZpoqRzgbNx529mVsLGwNmSzpU0cTQN1HUHAGA6sGVEXFPT+SwDSVsBpwIrlM5iZmYA3A+8IyIuHcm/VOdArYWBk6ppYdZCkvYBLsSdv5lZk6wAXFhdo4et7pHarwZ+WPM5bYwkLSDp28CxpELOzMyaZWHgWEnflrTAcP6FOh8BDLZnRPyywHlthKo30m+B3UpnMTOzYTkNeGdEzHqxf6jUXO2fSNqs0LltZL6FO38zszbZjXTtflGl7gAAPAhsFRF3FDq/vYTqedKxpXOYmdmo7BsRx83vD0sWAAC3AK+NiEcKZrB5qEb7X4if+ZuZtdV04E3zmx1QugAAuBTYLiKeLZzDKtWc0ivxaH8zs7a7H9g8IqYO/YMmrNe+FfBHSRNKB7EXHIM7fzOzXrAC6Zo+lybcAei4gbRz4JTSQfpZtbzv2aVzmJlZV+00dNngJhUAkPZBfmtEXFs6SD+qNvb5B17e18ys11wNbDp4A6EmPAIYbCXgL5J2KB2kT70Hd/5mZr1oY9I1/gVNuwPQMRP4wItNX7DukrQQMBlv6Wtm1qvuBNaOiBnQvDsAHeNJSxr+V+kgfeQA3PmbmfWy1UnXeqC5BUDHlyX9VNKCpYP0gfeWDmBmZtm9cK1v6iOAoc4C/j0iniodpBdJWo40V7SOgnAWcDNwVXXcV8M5zcyaaEVgk+p4NTCsTXzGaDawQkQ81JZP1m8BrpG0f0RcXDpMD9qV/J3/k8CngBMj4pnM5zIzaxVJiwF7At8Blsx4qnGka/7RTX8EMNgawEWSvl/9j7Lu2T1z+xcDG0TET935m5nNLSKeiYifAhuQrpk57Q7teQQw1O2A7wZ0gaTFgYeBRTKd4hvAFyJidqb2zcx6iqRxwFeBz2U6xXPAsm0tACDl/gHwOX+qHD1JuwCnZ2r+YtJGFO78zcxGoCoCLgTekOkUu7bpEcBQAv4DuFbS60uHabE1MrX7JLCPO38zs5Grrp37kK6lOazR5gKgY03gz5KO8NiAUVkpU7ufioh/ZWrbzKznVdfQT2VqfqVeKAAg3Q34BOluwNalw7RMjgJgFnBihnbNzPrNiaRrarf1TAHQ0bkbcKSk5UuHaYkcBcDNHpdhZjZ21bX05gxN91wBAGmO44eB2yV9TdKE0oEaLkcBcFWGNs3M+lWOa2q2AqAJMwsWBw4F7pB0iMcHzJcLADOzZmtVAfB50s5yTbAM8E3gNkkfljS+dKCGybHilJf3NTPrnhzX1CVzFQB3Aq8FLsrU/misCBwJTJa0ZzXH0szMrC9l6wQj4jFgJ+AXuc4xSq8kZbpG0q6lw5iZmZWQ9VNwRMyIiL2AL+c8zyitD5wm6RJJbywdxszMrE613AaPiMOA/YCZdZxvhLYCLpR0jqSdJKl0IDMzs9xqew4eEccCOwIP1HXOEdoB+BNws6RPSFq6dCAzM7Ncah0IFxEXARsC59V53hF6FXAEMLVaUGjd0oHMzMy6rfaR8BHxAGlw4OfJs7xhtyxBWlDoBknnS3q7pAVKhzIzM+uGIlPhImJ2RHwdeCMwpUSGEdoWOJW0qNBnJS1bOpCZmdlYFJ0LHxF/BTYC/lAyxwisAnwDmCLpGEmblg5kZmY2GguWDhARjwK7SvoEqXNdtHCk4VgE2BfYV9JlwA+AUyPiuaKp+lz1iGYdYBJwXUTcUziSWW0Gvf/XpgHX9h7zPGl125siosmPrkekMW+SiPiepDOAn5BuubfFltXxpKTTgV8DZ0fE9LKx+oOklYBPA1sAGwOLDfqz+4ErgXOBI3vpL64ZvPj737J4RtLVwBXAtyPi3tKBxqJRy+FGxO0RsR2wP/BY6TwjtCSwJ3Aa8ICk4yTtLGmhwrl6lqS9gRuATwKvY+6L3wrALsD3gcsk/b96E5rlM4z3v3XfYqT/158kDRDfu3CeMWlUAdAREceQbmWdXDrLKC0N7A2cQSoGjpH0Fm9E1B2Slq3uthwHDHe7582Af0g6OF8ys/xG+f637psAHCfp9LYODG9kAQBpumBE7EH6BNeGmQLzM4E0XuCPwP2Sjq5WHGzM45cW+jnpfTFSCwPfkrRnl/OY1Wm073/LYxfS76R1GlsAdETEGcD/Iw20e75wnLF6Genxxp9IxcBPJG3v9QWGr7rlNtaL3/clrdCNPGZ16tL737pvlzY+Dmh8AQAQEU9GxH8AGwBnls7TJS8HPkAaoHafpB9L2qBwpkarBjx9rwtNvQw4qgvtmNWmi+9/y+N71e+oNVpRAHRExE0R8TbSuv3Xls7TRcsBBwJXSzpB0uqlAzXUp+neM89dJW3RpbbM6tDN97913wTS76g1WlUAdETEecAmwAHAfYXjdNM44H3AZEnf9aOBuXS7w3YBYG3i92vztep31MoCAF5YTvjnpM17vgw8UzhSNy0EHAT8T+kgTVEVQxt3udnNutyeWRaZ3v/WfRu36YNbawuAjoh4OiIOA9YCfgrMLBypmz4pab/SIRpiHbo/z9kFgLVFjve/dd9ipN9VK7S+AOiIiHsi4oPAmsCRQK+sxPdjP6sG0vK+bWjTLAe/V9ujNb+rnikAOiLi7oj4KPBK4Aja/2hgIeDjpUM0wHUtadMsB79X26M1v6ueKwA6IuLeiPgksDpwOPBU4UhjsXO/LxxUbexzf5eb/XuX2zPLItP737rv/jZtQtazBUBHRDwYEYcAqwJfBR4vHGk0lgG2KR2iAbrdYV/Z5fbMcnLB2nyt+h31fAHQERGPRsR/AasAnwBuKRxppN5aOkADnN/FtqYDf+lie2a5dfP9b3m06nfUNwVAR0Q8ERHfJ+2Z/WbSyoJRNtWwzC4doAF+CFzVpbYOi4g27zFh/aeb73/rvqtIv6PW6LsCoCOSs6uVBV8FfJdmPx7opQWPRiUingf2AWaMsanLgW+PPZFZfbr4/rfumwHsU/2OWqNvC4DBIuL2iPhPYGXgw6Q9tpum7wsAgIj4J/DFMTTxLLBvRMzqUiSz2nTh/W95fLH63bSKC4BBqkWFfhwR6wHbAr+gOdMIXQBUIuJbpCWTHx3hv3o5sElETO5+KrN6jOH9b933KPC+6nfSOi4A5iMiLoyIvYDlSVv4/plyYwWmApcUOncjRcSJpG2iTx/GPz4d+CzwOnf+1gtG+P63PE4H/l/1u2ilvp5bPhwR8RRwDHCMpNWAvatjjRpj/E9E+LnfEBFxP7BbtVLiFqSlfTcjrcR1HWlKzpXAXzzgz3rNi7z/1wZasx59S8wCJpOuKX8HroiIK8pGGjuR51PteyLipAztNoak15EG5Pw7sHTGUz0ArB4Rz+ZoXJJ//2ZmDSZpD+BX3W7XjwBGKSL+Vu09sCLwbuA3wNNdPs0zwHtzdf5mZta/XACMUUQ8GxG/joh/B5YFdgeOB6aNselngF0i4oKxZjQzMxvKBUAXRcRzEXFaROwDvIK00NBPgAdH2NR1wE7u/M3MLBcXAJlExMxqoaEDSY8JtgG+D7zYYLQbgT2AjSLirzXENDOzPuVZADWIiNnAxdXxCUkTSasPrkla4vcmYHJEeF6vmZnVwgVAARExlTS3/8LSWczMrD/5EYCZmVkfcgFgZmbWh1wAmJmZ9SEXAJZjJUC/r8zMuifHNTV8obaHM7S5doY2zcz6VY5r6sMuACzHNsObZGjTzKxf5bim3ucCwO7N0KYLADOz7slxTb3XBYDluAOwoqSVMrRrZtZXqmvpihma9h0Ay1IAAHwtU7tmZv0k17XUBYAxNVO7+0raJVPbZmY9r7qG7pup+akuACzncsQ/kfTyjO2bmfWk6tr5k4ynuNAFQJ+LiMnA7ZmaXwE4XdLqmdo3M+s51TXzdNI1NIfbI2KyCwADODNj268FrpP0oYznMDPrCdW18jrStTOXM8ErtlmSswAAWAL4kaTzJO0laR1Jfu+ZWd+TNK66Ju4l6TzgR6RrZk5nAog8S8G+JyJOytCuZSBpYdKKgLnfdIM9BVxFvlkIZmZNtyJpjn/d195lI2L6gjWe1BoqIqZLOhXYu8bTLgG8ocbzmZkZnBoR08GPAGzAV4FZpUOYmVk2s0jXesAFgFUi4lbg+NI5zMwsm+Oraz3gAsDm9BVgZukQZmbWdTNJ1/gXuACwF0TEncCxpXOYmVnXHVtd41/gAsCG+grweOkQZmbWNY8z5NM/uACwISJiCnBA6RxmZtY1B1TX9jm4ALC5RMRvgR+UzmFmZmP2g+qaPhcXADY/nwauLB3CzMxG7UrStXyeXADYPEXEDODdwLTSWczMbMSmAe+uruXzNA54LsOJF8vQppmZmXXJOOCxDO0ul6FNq5GkhYCTgQmls5iZ2YhNAE6uruXz5ALA5ufbwOalQ5iZ2ahtTrqWz5MLAJuLpHcCHy+dw8zMxuzj1TV9LrkKgDUytGk1kDQJOLp0DjMz65qjq2v7HMaRZ5T35pIWzdCu5fdfwNKlQ5iZWdcsTbq2z2EcMNfqQF2wELBlhnYtI0mrA/uWzmFmZl23b3WNf8E44KpMJ9smU7uWz38B40uHMDOzrhvPkLsAAl4J3J7hZJdFxFYZ2rUMJL0KuAlYoHQWMzPLYhawTkTcCjAuIu4gzziALSWtn6Fdy+MLuPM3M+tlC5Cu9QAoIpB0AfCmDCf7v4j4WIZ2rYskLQw8DCxR42mfIj1+uq/Gc5qZNcmKwCbUf+1dNiKmL1j94CryFAB7STokIp7O0LZ1zzbU8wY8HzgO+Dtwc0TMruGcZmaNJWkc8GpgM2AfYLvMp1yCdM0/p7MZ0F8ynWgpYO9MbVv37Jy5/aeAD0fE9hFxQkTc5M7fzAwiYnZ1TTwhIrYHPky6Zua0Mww8AlgEeIg8nwIfAF4VEU9maNu6QNJt5Fu86RLgfRFxZ6b2zcx6SjVd7xfAazOd4vaIWHMc/P/27jzWrqqK4/h3AVKpGpWAFCwoiFBDopYyqExiBByLQFRKTVAIoIiI8zwREkCpaBAQ41CMWDQKheLclAoiBpAiSACRQYFaBaXSMBRpf/6xz9PH63uPd+/d+5x77v19kvdPgbUXPTv7rLfPOWuDpMeAnxYaaCvgk4ViW48iYhblbv6rgLm++ZuZTV21Zs4lraElvCgiZm006g9+VGgggA+MbUBgfaPEux8jjpX0z4LxzcwGUrV2HltwiP1HFwA/BR4tNNA0YEGh2NabmYXiLpS0pFBsM7OBV62hCwuFn/m/AqB6U//nhQYCOCQi/EJg/9m6UNxPFYprZjZMSq2lW2805g8WFhpoxNlVxznrHyUKgL9JWlkgrpnZUKnW0hL9UjYoAJYANxcYaMQzgUUR4X7z/WObAjFLnS9hZjaMSqyp2zypAJAk4PQCA43mVEAaAAALS0lEQVQ2Bzi18Bg2dSV2AFwAmJnlU2JN3WAHAGAR8JcCg432oYg4pvAYNjVbFIh5a4GYZmbDqsSausUGBYCkJ6jnjf1zI+LgGsaxyUWBmO7yZ2aWT4k1NcbbAQD4JqkzYEkbk94H2KvwOGZmZjbGuAWApEeBz9Yw/mbApRGxSw1jmZmZWWWiHQCAbwDX1JDD5sAVEbF3DWOZmZkZkxQA1Wlt76Ge57mbA7+KiLfWMJaZmdnQm2wHAEnXA+fUlMvTgR9ExIdrGs/MzGxoTVoAVD5NOtK3DgF8KSLOipjwBUUzMzPr0VPeZCX9GziphlxGOwG4OCKm1zyumZnZUJjSb9mSLgS+UziXseYCl0fE82oe18zMbOB1ss3+XuCmUolMYA/g6ojYqeZxzczMBtomU/0XJT1avaV/HelQn7rsQCoCDpO0vMZxrSUiYg9Ssbhb9bMtcCNprl4LXCnpnuYyNCtnnPk/i9RozfJZR2rHe131c42kOj6TLyrS+T8d/AcR84Dvl0lnUuuBs4BPSnqkgfEHUkR0NgGmZl712KioiJgBnEd6XDSZtcDngDMkrSudl1kdOpj/VsalwHGSVpUeKCIOJ53Tk1XHb9pLWgR8PXciU7AR8H7gD24aZBExn3R09VQWv2nAacBVETGraGJmNehw/lsZc4Gbq2vRSt1+ancSsDxjHp3YEfh1RHzFXwkMp4j4KPA9UgOpTuwJXO8iwNqsh/lv+W0OfK+6Jq3TVQEgaS1wMM2d++7dgCFVnRtxcg8hNgMWRoSfkVrrZJj/VsbJbTzTputmO5IeAl4P3J4vnY55N2CIVDfthaQt/V7sCbjjpLVKxvlv+U2jhb9Y9NRtT9I/gAOBlXnS6Yp3A4bH8aS3nHP4QkRsmymWWR1yzn/LbzfSNWqNntvtSrobOAh4sOdseuPdgMF3QMZY04B9MsYzKy3n/LcyWnWNsvTbl/RH4I3AQzni9WBkN+CmiJgXEdFwPpbX7n0ez6wkz9f+16prlO3AHUlXA68G/pErZg92IPUqWBERb2w6GetdRDwfmJE5rLdTrRUKzX/Lb0Z1rVoh64l7klYAewN354zbg5cBl0XElRHh7d52e2lLYpqV4LnaHq25VtmP3JV0O6kIuDl37B7sDVwRET+JiJc3nYx1pUQrX7cHtrbwXG2P1lyr7AUAgKT7gH2B35WI34M3kBrBLIqIHZtOxjpyC5C7BfR1meOZlVJi/lt+j5CuVSsUKQAAJP0LeC3w81JjdCmAw4FbIuK8Nj2vGWZVD/8VmcO6ALBWKDT/Lb8VbTpvpFgBACDpYeBNwOklx+nSJsCxwO0R8cWIcFvN/pf79K3Wn+ZlQ8Xztf+16hoVLQAgVa6SPg4cBqwpPV4XNgM+AtxZFQLbN52QTegMYHWmWJcOwnGeNlRyzn/LbzXpGrVG8QJghKSLSGdW31rXmB16NqkQ+HNEXBYRr3Mfgf4iaSWpz0Ov/gUclyGOWW0yzn8r4/3VNWqN2goAAEm3koqAi+sct0MbkZoa/Qz4U0R8MCKe23BOVpH0XWBJj2FOrOMMb7PcMs1/y29JdW1apdYCAEDSGkmHAp8Anqh7/A7tCCwA7o2Ib0bE7KYTMgCOortFcC3wMUkXZM7HrE7dzn8rYwnpmrRO7QXACEmnAXsBtzWVQwemA0eTPiG8KiKOiIhNm05qWEl6QNJc4Eim/kz0OmCOpC+Wy8ysvC7nv+W3GjhS0lxJDzSdTDcaKwAAqpewZgNnA2oylw68CrgA+GtEnBIRM5tOaFhVW267AGcCV7Hhd9KrSNX5icArJPVTcyqznkxh/lt+j5D+rs8Edmnjtv9oIfXHfTciDgS+DbTtu/x1wCXAecAySf3+WONJIqLEBJgn6cICcSdVncX9EmBb4MaqIZXZUBg1/2eRPnO2fJ4gvcB+SxPf+UfE4cCi7HH7pQAAqF62O4fUqKeNHgAuAn4ILG9DQ4hBKgDMzAZRqQKg0UcAY0l6UNI8YB79capgp7YgNRdaCqyMiHMjYv+I6Ku/ZzMzs768MVW/Pe4MfI20xd5GzwPeDSwjFQNnR8R+LgbMzKwf9O3NSNJqSe8DdgeubjqfHm0FHA8sB+6LiLMiYh8XA2Zm1pS+vwFJWkH6XPAo4P6G08lhBnACcAVwT0R8NSL2ctdBMzOrU98XAABKvkN6LHAOsL7hlHLZhvSJ2m9IxcAZETGj4ZzMzGwItKIAGFG9JPheYA79d8xwr54PfAi4IyJOdfthMzMrqVUFwAhJN0h6PbAf8Num88lsOvBx0umERzSdjJmZDaZWFgAjJF0haS/gzcCNTeeT2XOAhRGxT9OJmJnZ4Gl1ATBC0mWklsLvAO5sOJ2cngb8OCJe0HQiZmY2WAaiAACQtL465W0W6ZO7uxpOKZctgcUFvxJYUyDm1gVimpkNqxJr6pqBKQBGSPqPpHNJR/keSvrcru1eDuxZKPbKAjF3LRDTzGxYlVhTVw5cATCi2hG4WNJ+pL+884HHG06rF28pFNcFgJlZf3MB0C1JKyS9E9gO+ALtPGegTQXAzhExvUBcM7OhUq2lOxcIPRwFwAhJf5f0eVIh8C7ghmYz6sjOEVHiqOQSBcDGwPwCcc3Mhs180pqa23AVACMkrZW0UNJsYH9gMe3oLvhIgZglCgCABRHxwkKxzcwGXrWGLigUfjgLgNEkLZd0CPBi4CvAQw2nNJHHJT1YIO4dBWICPAs43wcemZl1rlo7zyetpSXc4cW5IulOSR8AZgInUe7G2K1S7y0sAx4rFHtf4BQXAWZmU1etmaeQ1tASHgOWeWEeQ9IaSV8FdiK9eLcUWNdsVgDcVyKopIdJ/4+lfAK43I8DzMyeWrVWXk5aO0tZKulhFwATqD4jvETSAaSDek4gndqnhlL6dsHYiwvGhlTF3hgRx/jrADOzDUXE9Ig4htTWvtRv/iMWA4TU1P2snSJiJvBW4O2Ua84z1n3ADpKK9DGIiC2BVdTTGXIdcBtwffXztxrGNDPrR1uTvvHflfSpX4m3/cdaD8yQdL8LgB5UWzVvr35mFxzqRElnFYxPRFwJ7F1yDDMza9xvJO0DA3QWQBMk3S3pdEm7kt4Z+Axwc+ZhvgucnTnmeL5fwxhmZtas/6313gEoICJ24f87Azv1EOpC4B2Sir+EGBGbArcC25cey8zMGnEXMGvkcbILgMIiYjapEHgbU7+5riY1fzhN0hOlchsrIo4ALqhrPDMzq9V8Sd4BaEJE7AEcDhwCvHDMPxbwV9KW/5clra43O6iOHP49Zd9nMDOz+q0A5mjUTd8FQEMi4pmkI4u3A+4BbpNUotVvRyLiQOAXTedhZmZZHSTpl6P/wAWAbSAifgW8tuk8zMwsi6VVT5sncQFgG6h6HVwLzGg6FzMz68kqYHdJ9479B/4M0DZQTZRDgbVN52JmZl1bCxw63s0fXADYBCRdDRzXdB5mZta146q1fFwuAGxCks6n3FnUZmZWzoJqDZ+Q3wGwSUXExsCPgYObzsXMzKbkEuCwp2oi5x0Am1Q1gQ7DOwFmZm2wgCnc/ME7ANaBiDgSOA+Y1nQuZmb2JGtJz/wn3fYfzQWAdSQiXglchD8RNDPrF6tIb/tP+MLfePwIwDpSTbDdgaVN52JmZiwlfeff0c0fXABYFyTdW3WVOojUX9rMzOq1gtTe94CJvvN/Ki4ArGtVX+k5wHzSMZNmZlbWXaQ1d87Y3v6d8jsAlkVEbAocDRwBvAoXl2ZmuawHrgIWAd+S9HiOoC4ALLuI2BKYC7yFdKjQ05vNyMysdR4jPd9fDFwq6f7cA7gAsKIi4hnAa4AXAduM8/Os5rIzM2vUGmDlOD93AMskPVxy8P8CGtd5/6p3d+wAAAAASUVORK5CYII=;" vertex="1" parent="dNxyNK7c78bLwvsdeMH5-11">
          <mxGeometry x="390" y="260" width="60" height="60" as="geometry" />
        </mxCell>
        <mxCell id="F3j0-nGMCzHcTSTMeUYu-43" value="분류" style="text;html=1;align=center;verticalAlign=middle;whiteSpace=wrap;rounded=0;" vertex="1" parent="dNxyNK7c78bLwvsdeMH5-11">
          <mxGeometry x="500" y="290" width="60" height="30" as="geometry" />
        </mxCell>
        <mxCell id="F3j0-nGMCzHcTSTMeUYu-46" value="" style="shape=image;verticalLabelPosition=bottom;labelBackgroundColor=default;verticalAlign=top;aspect=fixed;imageAspect=0;image=data:image/png,iVBORw0KGgoAAAANSUhEUgAAAgAAAAIACAYAAAD0eNT6AAAABHNCSVQICAgIfAhkiAAAAAlwSFlzAAAROQAAETkBG9mTRgAAABl0RVh0U29mdHdhcmUAd3d3Lmlua3NjYXBlLm9yZ5vuPBoAACAASURBVHic7d13vB9Vnf/xVwqBEEqE0IsGFRRFKcKiCAakSVGRqi5iWUFWVlEssO4qtlXWQrGtgrKCAlKko3RZEBQEBARCkRBAaSFAer+/P87NzwD3Jt9778z5zHfO6/l4nAcuS+Z8zvfezLy/M2fOGYaktlgH2LS3bdz7f68BjOv958h+/txMYB4wB5gKPAE8DjwJPAJMBO4FZtRYu6TMhkUXIGlQRgJbA2/rbdsCY2vsrweYDNwD/BG4vvefs2rsU5IkAasCBwMXkr6N9wS3ecBNwLHAFvUNW5Kk8iwHHARcTLpFH33RX1qbBJwA/FMtn4QkSQVYC/g86Rl89IV9MO2e3vpXr/qDkSSpjTYC/pd0ez36Il5FmwX8ANiwws9IkqTWWB84kebf5h9smwecRno7QZKk4o0GvgbMJv4inSsIHE+a0ChJUpEmkN6vj74oR7QpwCeB4UP9ECVJ6hZjgV8SfxFuQruBNO9BkqRW2wb4K/EX3ia1acChQ/lQJUlqquHAF4D5xF9wm9rOAVYZ7AcsSVLTjAEuIv4C2w3tPnxTQJLUAusCfyL+wtpNbQppgqQkSV3pjcCjxF9Qu7HNBQ4c+EcuSVKszUnfZKMvpN3cFpA2P5IkqSt48a82BHxgYB+/JEn5bQE8Q/yFs01tAbD/QH4IkiTltB7wGPEXzDa22cCbO/9RSJKUx8rAHcRfKNvcngZe1ekPRJKkuo0ALiP+AllCu5sUtiRJCvdN4i+MJbVTO/uxSFqaYdEFSF1uZ+ByumNXu6nAg6RJis8B04HVettapNvry4dVNzAHAb+KLkLqZgYAafDWID33Xye6kD5MI+20dwNwI+nW+ZRl/JkRwHjSa4zbA28DNqOZ4eY5Up2TowuRJJXnYuJvhy/ZniPdHt8TGFXRGNcHjgRuasD4XtyurGiMkiR17CDiL4CL21+Aw4GVah1xWtr4p6RX8qLHvLi5PoAkKZuVacb7/veSLoC5H+WtQZr4OGcItVfVHqX+4CNJEgAnEHvRmwocSnpmH+nVwG+JDwHfqHugkiS9HphP3MXuV8DatY9yYD5A7N4Hc0irMEqSVJvziLnIzQY+mWF8g7U+8HviQsAJ9Q9RklSqNwKLyH9x+yvpdbymGwV8n5gAMIvm3RmRJLXE+eS/sN1MWqSnm3wSWEj+z+rbOQYnSSrLZuT/9n8FMCbH4GrwIfKHgOnAKjkGJ0kqx4/IezH7Pd3/etvh5L8LcFiWkUmSirAS8Dz5LmK30p5vsv9B3gBwa55hSZJKcBj5LmBPABvkGVYWw4CzyBsCtswyMqnLuRmQmmI9YGPgZaRvv1WtZV+FTwKbZuhnPrAj6fZ/m4wh7SWQ602Gy4ALM/XVqWdJcxQeJ63gOC+2HEmKM5a0gMwFpO1pc35DbGr7zyF9os32BmAu8Z9xE9o84E7Scspvxi9ikgqxEvB50s510SfiJrVbgeWG8Ll2g9zzAbql3UkKw9FLO0tSbbYGHiH+hNu0toDuWOhnqEYCdxP/eTe1XYmLGUlqod1pxu5xTWw/HMLn2m32JP7zbnJ7HNhk0J+uJDXMRqQd7KJPrk1szwHjBv/RdqVriP/cm9weAFYf9KcrSQ3yG+JPqk1t3xzC59qtdiH+c296+/mgP11JaohXErOBTje0OcA6g/9ou9ptxH/+TW7zKfd3Q5kMjy5ArbcLvubUnzNJz3xL9P3oAhpuJGnejFQbA4DqtnF0AQ12WnQBgc4j3QFR/3IsPqWCGQBUt27f0KYuk4HroosI9DxwSXQRDbdqdAFqNwOA6ubt/779mjQ3omTnRxfQcP7dUa0MAFKMK6ILaICrSRPeJAUwAEj5zQOujy6iAZ4E7okuQiqVAUDK7wZgZnQRDXF1dAFSqQwAUn5e9P7hyugCpFIZAKS8FgHnRhfRINeQtoOWlJkBQMrrEuD+6CIaZBZlbYYkNYYBQMpnPvDF6CIa6ETShEBJGRkApHy+CdwRXUQDPQMcFl2EVBoDgJTHxcBXootosAuBL0cXIZXEACDV71LgQGBBdCENdyxlbo8shTAASPVZAHwNeCcwO7iWbnEMsD9prwBJNTIASNXrAS4HtgD+E9f8H6hzgVeTJgfODa5Fai0DgFSN50kL/BxLunjtDvwlsqAu9zRwJLA28EHgbNLnOS+wJknSAJxM+kZcV7sh31CkF7ieen+3T843FJXIOwCSJBXIACBJUoEMAJIkFcgAIElSgQwAkiQVaGR0AQJgdeA1wGuBTYD1gVWAVXvbKsDKYdUNzYrRBUhd6mBg3+giBmk66dXYaUv881HgPuBeYCIwNaw6AQaACMOBNwA79bZtgDVCK5LURMv3tm70sg7+m6eBPwLX9La7cNGsrAwAeawA7A0cAEwAxoVWI0nx1gD26m0AU4BrSYs+XQLMCapLqsRWpOVMn6beBUNKbi4EpCh1LwRUcnsOOA3YGRjW6Q9EijYK+AjpWVf0X6ISmgFAUQwAedp9pHPqqM5+LOqUbwFUZwzwSeBB4BRg49hyJKkVNiadUx8h7bWxamg10hKGA4fibf6o5h0ARfEOQEx7CvgofoEdMj/AodkK+D3wY5zYJ0k5rAH8BLgFeEtwLV3NADA4Y4Gfkn4Btw2uRZJKtCXpLswp+FhgUAwAA7cN8Cfgwzg7VZIiDSdNELwTeGtwLV3HANC5YaRJfjcArwyuRZL0DxuS1hA4FhgRW0r3MAB0ZjXgKuAEYLngWiRJLzUS+BJwOZ2tRFg8A8CyvYI00W+n4DokScv2duBm4FXRhTSdAWDp3kC65f+a6EIkSR17FWmC4FbRhTSZAaB/u5C++a8XXYgkacDWBn5HWk5YfTAA9O0twPnAStGFSJIGbSXgImCH6EKayADwUpsDl5KW9pUkdbfRwMXAm6ILaRoDwAu9njTbf2x0IZKkyqwC/AbYNLqQJjEA/MOapF+Q1aMLkSRVbhzpHO+y7b0MAMlI4FfA+tGFSJJqsyHpXD8yupAmMAAkxwEToouQJNVuJ+Br0UU0gQEA9gc+FV2EJCmbzwH7RBcRrfQAsDZpK1839ZGkcgwDTgbWii4kUukB4Hu4ZrQklWh14PjoIiKVPBHi3cB+0UX043lgYm97FngOmBNa0eDtC2wdXYTUhW4BzosuYpBWIL1OvRqwCWk59VVDK+rbe4EzgEuiC1E+qwJ/A3oa0mYB5wCHAq+ucdwRTqbez+6GfEORXuB66v3dPjnfULLYGDgMOJd0zos+7y5uj5DWCVAh/ov4X7oe4FbgQ7T7l88AoLYyAAzeKqRz323En4d7gK/WO1w1xVrADGJ/2W6knA0qDABqKwNANXYF/kDsOXkasEbdA22aEicBHkPcOv+PAwcD25GWHJak0l0BvBk4BHgiqIaVgaOD+g5TWgBYj/ScPcL5wBuAX5ASpyQp6QFOAzYDLgiq4V8pbDXY0gLA50g7Q+W0EPgE8B5gSua+JambTCEt0HMk6dyZ0wrApzP3GaqkALAi8IHMfc4A3klab0CS1JkTgXeRzqE5HUL+L4lhSgoAB5F3m99ZwN7AZRn7lKS2uBTYnbwhYDWauz5M5UoKAIdl7GsusCfwu4x9SlLb/J50J2Bexj5zXitClRIANge2ydjf4Xjxl6QqXAN8PGN/2wGvz9hfmFICwL4Z+/oBcGrG/iSp7U4B/idjfzmvGWFKCQB7Z+rnPuCzmfqSpJIcBdyfqa+9MvUTqoQAsD7p/fu69ZCWtpydoS9JKs0s4CPkWUdlK2CdDP2EKiEA7E3a+7luZwA3ZehHkkp1A3B2hn6GkSZyt1oJAWC3DH3MA/4jQz+SVLpjgPkZ+tk9Qx+hSggAOfaiPxN4OEM/klS6SeS5C5Dj2hGq7QFgLWDdDP2ckKEPSVLy3Qx9bEjLdwgcGV1AzbbI0MdtwJ8z9KO+jaWcrZXVLDlXFtUL3QbcSf0TvDcHrqy5jzBtDwBbZegjx60o9e91tPgvqKR+nUP9AWBLWnx+afsjgByrOV2YoQ9J0gvl2DZ4swx9hGl7AKj7+f9TwMSa+5AkvdTd1L/Feo45ZGHaHgDWrvn4N9Z8fElS33qAP9TcR6sXA2p7AKj7h3dXzceXJPWv7nOwAaBLjQFWrrmPh2o+viSpf3+t+firAivW3EeYNgeA1TP08WiGPiRJfZucoY9xGfoI0eYAMCJDHwsz9CFJ6luOc3COa0mINgcASZLUDwOAJEkFMgBIklQgA4AkSQUyAKhuOfbtltpoXnQBajcDgOp2b3QBUpf6U3QBajcDgOp2e3QBUpe6ProAtZsBQHW7mbRpkqTO/Rl4MLoItZsBQHWbB5waXYTUZb4TXYDazwCgHL4PTI8uQuoS9wJnRxeh9jMAKIfHgGOii5C6wALgEHwDQBkYAJTLj4ALoouQGqwHOBK4JboQlcEAoFwWAQcCl0YXIjVQD/Ap4AfRhagcBgDlNA/YFziedMKTlN6S2Rc4MboQlcUAoNzmAp8GdgH+EFyLFGk28GNgM+D84FpUoJHRBahYV/e2HYD9ev+5GYZStdtU4Ebgd8DPgSmh1ahoBgBF+7/eBunivyqwErBcWEVS9aaR7n75OqwawwCgJlkEPNvbJEk18narJEkFMgBIklQgA4AkSQUyAEiSVCADgCRJBTIASJJUIAOAJEkFMgBIklQgA4AkSQUyAEiSVCADgCRJBTIASJJUIAOAJEkFMgBIklQgA4AkSQUyAEiSVCADgCRJBTIASJJUIAOAJEkFMgBIklQgA4AkSQUyAEiSVCADgCRJBTIASJJUIAOAJEkFMgBIklQgA4AkSQUyAEiSVCADgCRJBTIASJJUIAOAJEkFMgBIklQgA4AkSQUyAEiSVCADgCRJBRoZXYDUIMOBbYGdev85FhgNTAEmAdcDFwHTowqUJC3beKCn5jYh12BUq5HAIcA9LPtnPhv4CbB2SKWSlrQj9Z/nx2cbjSpjAFAn1gOuY+A/+2nARwLqlfQPBoAhcA6ASrYtcDuwwyD+7MrAKcA3gGFVFiVJORgAVKoJwBXAGkM8ztHAj4ZcjSRlZgBQid4BXEb6Fl+Fw4CPVnQsScrCAKDS7AtcQJrdX6UTgY0rPqYk1cYAoJK8DzgLGFXDsUcDx9RwXEmqhQFApTgMOJ161754P7BujceXpMoYAFSCI0gT9er+fV8O2LnmPiSpEgYAtd2XgO+R71W9wbxSKEnZuRSw2moY8N/AZzL3u37m/iRpUAwAaqNhwAnAJwL6XiWgT0kaMAOA2mYEcDLwoaD+ZwT1K0kDYgBQm4wCfgnsF1jDg4F9S1LHDABqi9HAucAewXX8Kbh/SeqIAUBtMIa0ul/0K3jze+uQpMYzAKjbjSWt6//m6EKAs4Gp0UVIUicMAOpmqwG/BbaOLgSYBXwhughJ6pQBoEwbAK8gvbK2CHgIeBiYG1fSgK0LXAW8NrqQXkcBk6OLkCTBeKCn5jYh12AqsBFwEmmWel9jmUWaRLcfzV8h8hX0P46I9s1aRyupPztS/9/v8dlGo8oYAJJVgFNJE9Q6HdetwPYRxXZgE+AR4i/6i9sJ5FtmWNILGQDUJwMAbA48wODGtgA4Mn/JS/UG4AniL/qL21frHa6kZTAAqE+lB4ANgKcY+hi/SzO+4W4NPEP8Rb+HNG/ic/UOV1IHDADqU8kBYHngZqob57fylv8S2wPPE3/h7wEWAofXO1xJHTIAqE8lB4AjqH6sX846gn/YEZjeYY11twXE7TEg6aUMAOpTqQFgBeBR6hnvv2ccB8BewOyKah9qm0vsHgOSXsoAoD6VGgD2o94xfzbTOA4C5tU8lk7bTGD3eocraRAMAEPQ9Pe9NXB1b4ZzHPU/A/8oaVe/5WrupxMzgL1JKw5KkrpAqXcABvva30DaQuCQmur/JGmWffS3/h7SWwdNWGZYUt+8AzAELgXcPutm6GM48FPSLfozKzzu52nOqnpPArsCd0YXshQrAbuRdkFcH1gTGBFakbrNPNLrwg+Q7nJdR5rsKnW1Eu8ArEjeb8jzgHdVVPs3Mte+tDYZeHVF46rDmsD3aM4ESVt72hTSGhej6Q7eAVCfSgwAwxnYkr9VtLnAnkOoeRhwfOaal9YeIu2b0FTvA6YR/znZ2t0mA9vQfAaAIXASYLssAp7O3Oco4Bxgp0H82RHAKTRnyeF7gLeSQkATfQ34BbBydCFqvQ1JjwMOjC5E9TEAtM9dAX2OBi4EthvAn1mONNP/w7VUNHC3kFYc/Ht0If04CvgCzViWWWVYgRQ4BxPu1QUMAO3zm6B+VwIuo7NZ88sDv6I53y6uJ02kmxpdSD92JL1+KeU2EjgbWC+6EFXPANA+55PmAURYhTST+I1L+W/GAJcA+2SpaNl+S1rkZ1p0If0YDnwHZ/crzurAV6KLUPUMAO0zGTgtsP/VgCuB1/Xx/1sVuJz0bbsJLiYFkVnRhSzFgcAW0UWoeIcAm0QXoWoZANrpa6QV7KKsAVwBvGqJfzcOuJqBzROo0+nAe4A50YUsw/ujC5BId6AOii5C1TIAtNPDwMGkV1iirAtcS3qFZi3gGmCrwHqW9D/AB2n+gicrAW+PLkLqVdWaH2oIA0B7XUD8qnrrkx4HXA9sFlzLYv8N/Cvplcmm24Q0E1tqgs1wLkqruBRwu/076Wecawe/vrwysO8XOw44OrqIAVgnugBpCSNJj/eeiC5E1fAOQPt9HvhhdBHBeoBP010Xf0hvVUhNsmp0AaqOdwDarwc4gnTr7rDgWiIsJI37p9GFDMJT0QVIL+K3/xbxDkAZekjPvU+PLiSzBaSVBrvx4g/NXZVQZZoJPB9dhKpjACjHIuBDwBnRhWQyFziA2DURhmoifuNSc1wXXYCqZQAoy0LgA8BZ0YXUbCawN2lVxG62CLg0ugip14XRBahaBoDyLA4BF0UXUpPngF1Jrx+2wU+IXc9BAniWtOunWsQAUKb5wP6kNfnb5CnSxjk3RhdSoZuBc6OLUPG+TgoBahEDQLnmAfuSdvBrg8dJq+b9ObqQGhwFPBldhIr1R+D70UWoegaAss0D9iMt2dvNHga2B/4SXEddHiXtWzA3uhAV53HSFwV/91rIAKDZwF507wzfiaSL/1+jC6nZjaRdFF0bQLncT3qk9rfoQlQPA4AgbYe7J2nN/m5yO7AD8Fh0IZncALyZtKuiVJdFwM+ANwH3BdeiGhkAtNjiV+duiS6kQ7eQvhE/HV1IZg+Rxr07cDnpMY5UhWnAmcDmwEeA6bHlqG4uBawlPU96he4qmrN1b19+B7yTsk9Ql/e2VUh3QV5O2nZ5VGRR6jqzSbf4J5HuABoo1QrjSe9P19km5BpMZuOAu6j/8xtMuwQYXd/QJXWRHan/nDM+22gy8xGA+jKF9ErdPdGFvMhZwD6kby2SpCEwAKg/TwE7AfdGF9LrdOBg0iJGkqQhMgBoaZ4kzQmIfsXuB8AHSbv7SZIqYADQsjxGes42Kaj/44AjSK8mSZIqYgBQJx4lhYDJGfvsAT4HHJ2xT0kqhgFAnZoM7AL8PUNfPcCRwLcy9CVJRTIAaCAeIN0JeLzGPhYCHwZOqrEPSSqeAUADdT+wG+lVwarNAw4E/reGY0uSlmAA0GDcRVqO9pkKjzmLtLrfeRUeU5LUDwOABusO0pyAZys41gzSPgSXV3AsSVIHDAAaittJ6wQMZYvaR0nb+V5TSUWSpI4YADRUfwK2Y3ArBv4O2Ab4c5UFSZKWzQCgKjwIvJH06l4nkwPvJK3pvyPwRI11SZL64XbAqsp84ETSsr07kParfwWwBml2/6PAROBi4L6YEiVJixkAVLUFpOf5PtOXpAbzEYAkSQUyAEiSVCADgCRJBTIASJJUIAOAJEkFMgBIklQgA4AkSQUyAEiSVCADgCRJBTIASJJUIAOAJEkFMgBIklQgA4AkSQUyAEiSVCADgCRJBTIASJJUIAOAJEkFMgBIklQgA4AkSQUyAEiSVCADgCRJBTIASJJUIAOAJEkFMgBIklQgA4AkSQUyAEiSVKCR0QVIDTQS2BQYB4wBngQmAU9HFiVJVTIASMlw4D3Ah4HtgZX6+G/uBc4BfgZMzleaJGkgxgM9NbcJuQajWu0MTKTzn/ts4Bv0HRIk5bMj9Z/nx2cbTWbOAVDJhgNfBi4HNhnAn1sBOBq4EdighrokqXYGAJVqJHAa8EUG//dgM+CPvf+UpK5iAFCJlgfOBt5fwbHWAa4E1q3gWJKUjQFApVkRuBDYp8JjrgWcAYyo8JiSVCsDgEqyMvAbYLcajv024JAajitJtTAAqBRjgSuAHWrs43P4d0pSl/BkpRKsBVwHbFtzP5sA29XchyRVwgCgtlsHuBp4Q6b+JmTqR5KGxJUA1WYbAVeRdyGPLTP2JUmD5h0AtdVrSLf9c6/iNTZzf5I0KAYAtdHmpIv/+gF9rxDQpyQNmAFAbfMm0m3/NYP6fySoX0kaEAOA2mQCcA2wemANDwT2LUkdMwCoLd4BXEZa7CfSJcH9S1JHDABqg32BC4DRwXVMIm0OJEmNZwBQt3sfcBYwKroQ4FjS/uGS1HgGAHWzjwGn04z1LG4i1SJJXaEJJ07lswbwdtJkufHAqsAC0q3ru0m30SdGFTdARwHfAoZFF0Ka+b8/fvuXpEYYTzoh19km5BrMEL0S+Akwh2WP6TZgj5gyO/Yl6v/ZdtqeAl5X73Al9WNH6v87nnsxMVXAAJAcCsxm4GO7FFgtoN6lGUb61h990V/c/ga8ttYRS1oaA4D6ZACAHzK08U0k3T1oguEMfTxVtodIew1IimMAUJ9KDwAfp5oxPkFaVz/SCOBnxF/0F7d7iVlmWNILGQDUp5IDwOuAuVQ3zsnAK3IOYAmjgHOWUV/OdjtxywxLeiEDwBD4GmA7HUu178VvSNpc5+UVHrMTywNnA/tl7rc/twA7kyb+SZIaqtQ7AJsAC6lnvBOBtTKNYyXSuv7R3/gXt6t7a5LUHN4BGALvALTPPtT3c90EuBIYV9PxFxsLXE76y90ElwJ7ATOiC5GkqhgA2mf3mo+/GeniPLam469B+ub/lpqOP1C/IoWq2dGFSFKVXAmwfTbN0MeWwG+AXYHpFR53bdIdhtdXeMyh+AXwIdJqiU02Dlivt40JrkXd5VngcdJqllX+XZZClTgHYAT1Pf/vq91Adc/FXw48kLH2ZbUf0Ow7ZOuSVkS8jfjPytb9bT7pztu/0V0h0jkA6lOJAWA0+U8cVwArDLHuTYBHA2rvr311iOOp04rA14CZxH9Otna2v5NWEG3CPhvLYgBQn0oMAADTyH/C+C3plb3B2JS0pG70SW9x++Igx5HDusDNxH9GtjLa2aTA2WQGgCFo8i1ODc5jAX3uRnpePtA5JVsD15MubNEWkVZP/Ep0If3YgHTx3zq6EBVjf6q5w6eGMgC0z7VB/e4HnEGah9CJ7YGraMaGQwuBfyHtNdBEo4HzSJP8pJy2I+0kqhYyALTPZYF97w/8mGU/O9yN9NhgldorWrZ5wIHAqdGFLMVX8Zu/4hxM+rstdY1S5wCMIK3YF/ns8HtLqW8vBrc9cR1tJvWvmzBULwfmEP9Z2cpuD1Ht8uJVcQ7AEHgHoH0WAv8VXMMRwPF9/PuDgF/TjGeKM4B3ku5ENNnHGfwES6kq44F3RRehahkA2umXpMk7kY7khRPqPkqqa7mYcl5gKvB20vr+TedJV03x7ugCVC1XAmynhcB7SbvXbRRYx3+Sbl8/B3yfZrxX/CRpDsId0YV0YDywcXQRUq9dowtQtQwA7TUV2Jv0VkDk/vVfD+z7xR4BdgHujy6kQxtGFyAtYRxplcCZ0YWoGj4CaLd7SPvXT4kupAEmkSYMdcvFH9LeCFKTrBNdgKpjAGi/u0ghYGp0IYHuBd5KmsncTeZFFyC9yNzoAlQdA0AZ7iCFgGejCwlwK7ADaX3zbtONNau9FgFPRBeh6hgAynE7sAdlbfl5PbAT3fsI5K+kk67UBJNIuwaqJQwAZfkDaeGbGdGFZHAtKfBMiy5kCKaQfmZSE1wcXYCqZQAoz43AO2j3TN6LSRf/NgSdc6MLkHqdF12AqmUAKNMNwD6kd/Tb5gzgPbRnbP9DzA6P0pKuJZ031CIGgHJdSVrZq02zen9M2rhkQXQhFZoNHBtdhIo2HzgqughVzwBQtstJ6/O3YWLPfwOH085Jcz8FTokuQsU6kjSJWC1jANAFpBDQzd+ajwM+T9q5q62OIH5/B5Xn28APo4tQPQwAgrRD3/vovhDQQ7o1eXR0IRnMJU1sPC66EBVhAfBvwGejC5EGYzz17xM9IddgMjmEtJFQ9N7jnbQFwL/U8zE03ptJE7Kifwa2drYrgdfTHXak/s9jfLbRZOZmQFrSz0l3hU6h2XeHFgIfBk6LLiTITcD2wHakiZw7AxsAq0UWpa7UQ9ohcxJwKemR4N2hFSkbA4Be7FRgBPATmrF974vNJW11fH50IcF6SHcBlnw1awVgdEw56lIzaMckYA2CAUB9OQVYETgxupAXmUlav+DK6EIaag7tWf9AUs0MAOrPSaQ7Ad+NLqTX86RJcDdGFyJJbdDk57yKdzzNmAU8FdgVL/6SVBkDgJbl28BXA/t/gvS2xc2BNUhS6xgA1IkvAv8V0O9k0mz3uwL6lqRWMwCoU18g7yI0E4G3Ag9m7FOSimEA0EAcA3w/Qz+3AzvgLniSVBsDgAaiB/gE8KMa+7gF2AV4usY+JKl4BgANVA/wcdJCQVW7Dng78EwNx5YkLcEAoMHoIW29+4sKj3kp8A5geoXHlCT1wwCgwVoEfBA4q4JjnUla4W92BceSJHXAAKChWEjaRvg7g/zzPaQ3C/4Z1yOXpKwMABqqHuAzpN35nhjAn7sL2A04mnQ3QZKUkQFAVTkV2Bj4HGm72r4u6jOAc4EDgS1wUx9JCuNmQKrSdOBbvW11YD1gHOn2/qPAKo07xQAADr9JREFU3/BWvyQ1ggFAdXkGX+eTpMbyEYAkSQUyAEiSVCADgCRJBTIASJJUIAOAJEkFMgBIklQgA4AkSQUyAEiSVCADgCRJBTIASJJUIAOAJEkFMgBIklQgA4AkSQUyAEiSVCADgCRJBTIASJJUIAOAJEkFMgBIklQgA4AkSQUyAEiSVCADgCRJBTIASJJUIAOAJEkFMgBIklQgA4AkSQUyAEiSVKCR0QVIDTIM2ALYCdgaWA0YCzwOPARcD1wGzI4qUJK0bOOBnprbhFyDUa2GAwcCt7Psn/l04HvA6iGVSlrSjtR/nh+fbTSqjAFAnVgLuJKB/+ynAu8PqFfSPxgAhsA5ACrZlqRv/TsP4s++DDgdOJb06ECSuooBQKV6C3ANsM4QjjEM+BJwQiUVSVJGBgCV6G3Ab4FVKzreJ4BDKjqWJGVhAFBp9iJd/Feu+Lg/AF5Z8TElqTYGAJXkAODXwAo1HHsMcEwNx5WkWhgAVIoPAmcAy9XYx8HA2jUeX5IqYwBQCT4G/BQYUXM/oxjcGwWSlJ0BQG33eeBH5Ptd3yFTP5I0JAYAtdnngW9m7nODzP1J0qC4F4DaaBjwbeDTAX2vEtCnJA2YAUBtMww4CTgiqP9ZQf1K0oAYANQmI0iT/SIX5XkwsG9J6pgBQG2xPHAW8O7gOm4L7l+SOmIAUBusSFrgZ7fgOub31iFJjWcAULdbBbiYZrx+92vgmegiJKkTBgB1s7HAb4BtowsBZgNHRxchSZ0yAJRpLdL76mOBecBk4DFgYWRRA7QWcAXwhuhCeh0NPBxdhCQJxgM9NbcJuQZTgfWB44C/AIt46VieB34B7El6la7J1gcmUv/Pt9N2fL3DldSPHan/7/f4bKNRZQwAyRjSUrhz6Xxcvwe2iSi2AxsBDxF/0V/cci4zLOmFDADqkwEAXgfcw+DGNh84LH/JS/Va0qOK6Iv+4vYtmn+3RGozA4D6VHoAWBd4nKGP8eu5C+/H5sCTxF/0F7cv1jtcSR0wAKhPJQeA5Ui38asa51fylv8S2wJTib/o95DmTxxZ73AldcgAoD6VHAA+RvVj/fesI/iHHYBpHdZYd1sI/Eu9w5U0AAYA9anUADAKmEQ94/1sxnEAvIO0uU70hb8HWEDsHgOSXsoAoD6VGgD2ob7xLiLdXchhXwb25kKdbQ7wznqHK2kQDABD4OtL7bNHjcceBvwQ+GiNfQC8j7Sxz6ia++nELNLF/6LoQiRJnSn1DsD91D/uBcBBNdX/MdKz9uhv/T3As8BbahqnpKHzDsAQuBRw+6yboY8RpFUDFwFnV3jcI4CTaMa79VNJcxBuji5kKVYA3g7sTFraee3efyd1aiZpbY2HgcuAm0h/r6WuVuIdgBXJ+w15LukiWYUvZa59ae1vwKYVjasOq5EWIZpO/Gdla1f7O/AJmvH4rRPeAVCfSgwAw0kr+OU8YcwBdh9CzcNIF7PoE9/i9jDwqiGMp2770pw1EWztbQ8AW9B8BoAhcBJguywCpmTuc3ngPNL7+gM1DDgB+EylFQ3efcBbgQejC+nHfwDnAC+LLkSt9yrgetJbRWopA0D7/CWgzxWBi4GtB/BnRgD/S7rd2AR/JoWYx6IL6ccRwFdpxvwIlWEM8CvgbdGFqB4GgPb5TVC/qwBXAFt18N+OIr3m94FaK+rcLaSJdE9FF9KP7XHLYcVYjjTRd+3oQlQ9A0D7nE96TS/CWFIAWdoEutGkGvfLUtGyXQPsBDwTXUg/hpEu/r6xoyhrAsdGF6HqGQDaZxLwy8D+1wCuBV7Tx/9vDGlBnToXKxqIy4C9gBnRhSzFfnR2V0Wq00do9uRYDYIBoJ2+SlrBLsqapMcBr1ji340FriLdam+Cs4F3A7OjC1mGg6MLkEh3oOpa/EtBDADt9Ffid63bALgOeDkpEFxL2ta3CX4BvJ/0ymSTrUhzApP0rugCVC0DQHudCXw3uIYNgcuB3wGbx5by/51EmnwYNU9iIF5DmjMhNcEb8ZrRKk4sarfPkC4ghwfWsElg3y92HHB0dBEDsE50AdISliPN8XkyuhBVwzTXbj3Ax4GfRBfSAF+iuy7+AKtGFyC9yNjoAlQd7wC0Xw/pDsCKwD8H1xKhB/gUcGJ0IYPwdHQB0ov47b9FDABlWAR8kLT63ntjS8lqIXAo8LPoQgbp79EFSEuYBTwXXYSq4yOAciwkvVL2q+hCMplHem2pWy/+ABPxLoCa4/roAlQtA0BZFoeAi6ILqdlc4ADg3OhChmghcEl0EVKvC6MLULUMAOWZD+wPXBpdSE1mAnvSnpPVydEFSMDzpMWz1CIGgDLNI4WAq6MLqdizpIVz2jSum0h7J0iRvkFz98vQIBkAyjUbeCdphb42eBLYEfhDdCE1+DQwJboIFes20gJaahkDQNlmkTbD+b/oQoboEWAH4I7oQmryMLAP6c6NlNOTdMeeGRoEA4BmAXsDN0cXMkiTSN/8748upGY3kH5Oz0YXomI8SPq79Wh0IaqHAUAA04BdgT9FFzJA9wLbAw9FF5LJFaQNlW6ILkSt1gOcAWxN+jumljIAaLHngV1Iz/u6wa2k2/5/iy4ks/tJoefdpN0WF8aWoxaZBfwa2Ia0W6aL/rScKwFqSc8BuwPXAK8PrmVprifNXZgWXUigC3vbOGACsH5vWzmwJnWfZ4DHSbf7ryOFAKnrjSfdyqqzTcg1mMzWBO6m/s9vMO0aYKX6hi6pi+xI/eec8dlGk5mPANSXp4CdSEvRNsnFwB7AjOhCJKnbGQDUnydJcwKaMsHuTGBfYE50IZLUBgYALc1jpFtsDwfX8WPSVsbzg+uQpNYwAGhZHiHdCYiabf894HDSlsaSpIoYANSJxQuCPJ653+OAT5Am4kiSKmQAUKceIIWAJzL01QMcBRydoS9JKpIBQANxH7Ab9e4Ktgg4DPhujX1IUvEMABqoO0lb7k6t4dgLgQ8DJ9dwbEnSEgwAGow/k0JAlRvTzAMOAH5e4TElSf0wAGiwbgf2BKZXcKzFOxL+uoJjSZI6YADQUNxE2jtgKI8DHietOnhFJRVJkjpiANBQ3cjgt+T9A/BPwB8rrUiStEwGAFXhHuB1wDGkbYWX5QHgvcBbgEdrrEuS1A+3A1ZV5gDfBE4g3dLfA9iQtF3tAmAy6TXCi4E7gmqUJPUyAKhqc4DLepskqaF8BCBJUoEMAJIkFcgAIElSgQwAkiQVyAAgSVKBDACSJBXIACBJUoEMAJIkFcgAIElSgQwAkiQVyAAgSVKBDACSJBXIACBJUoEMAJIkFcgAIElSgQwAkiQVyAAgSVKBDACSJBXIACBJUoEMAJIkFcgAIElSgQwAkiQVyAAgSVKBDACSJBXIACBJUoEMAJIkFcgAIElSgQwAkiQVqM0BoCe6AElS12vttaTNAWBmhj5WytCHJKlvK2foY0aGPkK0OQBMy9DH2Ax9SJL69rIMfeS4loRocwCYC8ypuY/1az6+JKl/69V8/NnAvJr7CNPmAAAwvebjb1Hz8SVJ/duy5uM/X/PxQ7U9AEyt+fhb13x8SVL/3lTz8Z+r+fih2h4A7q/5+OOBN9bchyTppbYCXl5zHxNrPn6otgeAv2To44AMfUiSXmj/DH3cnaEP1eT9pHc462xTgDG5BiRJYgzwNPWf3w/KNaAIbb8DcFeGPlYHPpKhH0lScigwLkM/Oe4iqyajSAsC1Z0SnwHWzDQmSSrZWqQJ3nWf12cAy2Uak2pyEfX/ovQAv8w1IEkq2JnkOadfkGtAqs/h5Pll6QE+mmlMklQiz+cakA3J9wszB9g+z7AkqShvI63wmuNcvghXem2NO8kXAqYB2+YZliQVYTvSyq65zuO35xmWcvgs+X5xekjLR+6eZWSS1G57kL5Y5TyHfzrLyJTF6sAs8v4CLQA+BQzLMD5JapthwFGkc2nOc/dMYLUM41NGp5L3l2hxuwKfJUnSQKwNXELMOfuUDONTZlsQ88vUQ3p2dSywQt2DlKQuNgr4JGkTnqjz9Va1j1IhriXul6oHeAj4V2B03QOVpC6yInAE8DCx5+irax6nAm1Ner0j8hesB3gK+A7uJCipbFsAx5P2VIk+Ly/Eb/+tdwbxv2hLtvuAE4G9cDlhSe22JulcdxLp3Bd9/l2ynV7juBupxBnq44F7geWjC+nHo6T6Hun93zNJcwgkqZusTNq1b0NgA2BTmjsheg7wGmBydCE5jYwuIMAk4NvAF6IL6ccGvU2SlMdxFHbxhzLvAEAKPjeS5gRIksp1G2n11vnRheRWagAAeC1wK87Il6RSzQK2JM1HKM6I6AICTSHt9+ySvZJUpiOB30YXEaXkAABwM/A60uQUSVI5zgKOiS4iUsmPABYbTVr84c3RhUiSsrgFmEB6BFAsA0AyDrgJeFV0IZKkWk0iTfp7KrqQaMOjC2iIKcC7gGeiC5Ek1eZp4B148QcMAEu6B9ge+Ht0IZKkyj0JvJ1CZ/z3xUcAL7UJcCUuxiNJbfEIsDPwQHQhTWIA6Nt44Cpgo+hCJElD8lfSxf/h4Doax0cAfZsEbEO6EyBJ6k7XAdvhxb9Ppa8DsDSzSTsHLk/6BfJuiSR1hx7ge8A/42Zq/fKi1pkDgFNIu1tJkpprGvBh4LzoQprORwCdOZu0VeRF0YVIkvr1W2AzvPh3xADQub+T1go4ANcLkKQmeQ44jPSO/yPBtXQN5wAM3D3A6cAapKTpYxRJirEQOA3YhzThTwPgxWtoXgt8GdgPP0tJyukq4DPAHdGFdCsfAQzNvaRHAtuRXhnsiS1Hklqth/Scf1tgF7z4D4nfWqv1auAjwKHAy4JrkaS2mA6cCZwE3B1cS2sYAOqxMvAB4L2kbYa90yJJA7MIuJF04T8d3+evnAGgfuOAPYD9gV2BUbHlSFJjLQT+AJzT29ycrUYGgLxWAjYnzRl4K/AWYLXQiiQpzgzSc/wbgN/3/vPZ0IoKYgCINQJ4ZW/baIn/vS6wYm9bFRiDdw4kdY95wEzgeWBWb/sb8BBpc57F/3yQdKtfAf4fl6KTNytrpNAAAAAASUVORK5CYII=;" vertex="1" parent="dNxyNK7c78bLwvsdeMH5-11">
          <mxGeometry x="600" y="254" width="66" height="66" as="geometry" />
        </mxCell>
        <mxCell id="F3j0-nGMCzHcTSTMeUYu-47" value="업무성과" style="text;html=1;align=center;verticalAlign=middle;whiteSpace=wrap;rounded=0;" vertex="1" parent="dNxyNK7c78bLwvsdeMH5-11">
          <mxGeometry x="603" y="320" width="60" height="30" as="geometry" />
        </mxCell>
        <mxCell id="F3j0-nGMCzHcTSTMeUYu-48" value="가공된 자료" style="text;html=1;align=center;verticalAlign=middle;whiteSpace=wrap;rounded=0;" vertex="1" parent="dNxyNK7c78bLwvsdeMH5-11">
          <mxGeometry x="380" y="320" width="80" height="30" as="geometry" />
        </mxCell>
        <mxCell id="F3j0-nGMCzHcTSTMeUYu-49" value="&lt;b&gt;&lt;font style=&quot;font-size: 14px;&quot;&gt;100%&lt;/font&gt;&lt;/b&gt;" style="text;html=1;align=center;verticalAlign=middle;whiteSpace=wrap;rounded=0;" vertex="1" parent="dNxyNK7c78bLwvsdeMH5-11">
          <mxGeometry x="70" y="30" width="60" height="30" as="geometry" />
        </mxCell>
        <mxCell id="F3j0-nGMCzHcTSTMeUYu-50" value="&lt;b&gt;&lt;font style=&quot;font-size: 14px;&quot;&gt;20%&lt;/font&gt;&lt;/b&gt;" style="text;html=1;align=center;verticalAlign=middle;whiteSpace=wrap;rounded=0;" vertex="1" parent="dNxyNK7c78bLwvsdeMH5-11">
          <mxGeometry x="290" y="230" width="250" height="30" as="geometry" />
        </mxCell>
        <mxCell id="F3j0-nGMCzHcTSTMeUYu-51" value="&lt;b&gt;&lt;font style=&quot;font-size: 14px;&quot;&gt;1%&lt;/font&gt;&lt;/b&gt;" style="text;html=1;align=center;verticalAlign=middle;whiteSpace=wrap;rounded=0;" vertex="1" parent="dNxyNK7c78bLwvsdeMH5-11">
          <mxGeometry x="598" y="230" width="70" height="30" as="geometry" />
        </mxCell>
        <mxCell id="F3j0-nGMCzHcTSTMeUYu-16" value="" style="endArrow=none;html=1;rounded=0;exitX=1;exitY=0.5;exitDx=0;exitDy=0;strokeWidth=2;" edge="1" parent="1" source="F3j0-nGMCzHcTSTMeUYu-2">
          <mxGeometry width="50" height="50" relative="1" as="geometry">
            <mxPoint x="270" y="380" as="sourcePoint" />
            <mxPoint x="280" y="110" as="targetPoint" />
          </mxGeometry>
        </mxCell>
        <mxCell id="F3j0-nGMCzHcTSTMeUYu-17" value="" style="endArrow=none;html=1;rounded=0;exitX=1;exitY=0.5;exitDx=0;exitDy=0;strokeWidth=2;" edge="1" parent="1" source="F3j0-nGMCzHcTSTMeUYu-3">
          <mxGeometry width="50" height="50" relative="1" as="geometry">
            <mxPoint x="270" y="380" as="sourcePoint" />
            <mxPoint x="280" y="210" as="targetPoint" />
          </mxGeometry>
        </mxCell>
        <mxCell id="F3j0-nGMCzHcTSTMeUYu-18" value="" style="endArrow=none;html=1;rounded=0;exitX=1;exitY=0.5;exitDx=0;exitDy=0;strokeWidth=2;" edge="1" parent="1" source="F3j0-nGMCzHcTSTMeUYu-4">
          <mxGeometry width="50" height="50" relative="1" as="geometry">
            <mxPoint x="270" y="380" as="sourcePoint" />
            <mxPoint x="280" y="310" as="targetPoint" />
          </mxGeometry>
        </mxCell>
        <mxCell id="F3j0-nGMCzHcTSTMeUYu-19" value="" style="endArrow=none;html=1;rounded=0;exitX=1;exitY=0.5;exitDx=0;exitDy=0;strokeWidth=2;" edge="1" parent="1" source="F3j0-nGMCzHcTSTMeUYu-5">
          <mxGeometry width="50" height="50" relative="1" as="geometry">
            <mxPoint x="270" y="380" as="sourcePoint" />
            <mxPoint x="280" y="410" as="targetPoint" />
          </mxGeometry>
        </mxCell>
        <mxCell id="F3j0-nGMCzHcTSTMeUYu-20" value="" style="endArrow=none;html=1;rounded=0;exitX=1;exitY=0.5;exitDx=0;exitDy=0;strokeWidth=2;" edge="1" parent="1" source="F3j0-nGMCzHcTSTMeUYu-6">
          <mxGeometry width="50" height="50" relative="1" as="geometry">
            <mxPoint x="270" y="380" as="sourcePoint" />
            <mxPoint x="280" y="510" as="targetPoint" />
          </mxGeometry>
        </mxCell>
        <mxCell id="F3j0-nGMCzHcTSTMeUYu-21" value="" style="endArrow=none;html=1;rounded=0;strokeWidth=2;" edge="1" parent="1">
          <mxGeometry width="50" height="50" relative="1" as="geometry">
            <mxPoint x="280" y="110" as="sourcePoint" />
            <mxPoint x="280" y="510" as="targetPoint" />
          </mxGeometry>
        </mxCell>
        <mxCell id="F3j0-nGMCzHcTSTMeUYu-23" value="" style="endArrow=classic;html=1;rounded=0;strokeWidth=2;" edge="1" parent="1">
          <mxGeometry width="50" height="50" relative="1" as="geometry">
            <mxPoint x="280" y="310" as="sourcePoint" />
            <mxPoint x="420" y="310" as="targetPoint" />
          </mxGeometry>
        </mxCell>
        <mxCell id="F3j0-nGMCzHcTSTMeUYu-42" value="" style="endArrow=classic;html=1;rounded=0;strokeWidth=2;" edge="1" parent="1">
          <mxGeometry width="50" height="50" relative="1" as="geometry">
            <mxPoint x="510" y="310" as="sourcePoint" />
            <mxPoint x="640" y="310" as="targetPoint" />
          </mxGeometry>
        </mxCell>
      </root>
    </mxGraphModel>
  </diagram>
</mxfile>
